<svg width="24" height="24" viewBox="0 0 24 24" fill="none" xmlns="http://www.w3.org/2000/svg">
<path d="M20.9262 23.9748H4.00617C3.20141 23.9733 2.43006 23.6529 1.861 23.0838C1.29194 22.5148 0.971559 21.7434 0.970001 20.9386V4.0186C0.971559 3.21383 1.29194 2.44247 1.861 1.87342C2.43006 1.30436 3.20141 0.98398 4.00617 0.982422H20.9262C21.731 0.98398 22.5023 1.30436 23.0714 1.87342C23.6405 2.44247 23.9608 3.21383 23.9624 4.0186V20.9386C23.9608 21.7434 23.6405 22.5148 23.0714 23.0838C22.5023 23.6529 21.731 23.9733 20.9262 23.9748ZM4.00617 2.75107C3.67 2.75107 3.34761 2.88461 3.1099 3.12232C2.8722 3.36002 2.73865 3.68243 2.73865 4.0186V20.9386C2.73865 21.2748 2.8722 21.5972 3.1099 21.8349C3.34761 22.0726 3.67 22.2062 4.00617 22.2062H20.9262C21.2624 22.2062 21.5848 22.0726 21.8225 21.8349C22.0602 21.5972 22.1938 21.2748 22.1938 20.9386V4.0186C22.1938 3.68243 22.0602 3.36002 21.8225 3.12232C21.5848 2.88461 21.2624 2.75107 20.9262 2.75107H4.00617Z" fill="#15353B"/>
<path d="M3.03342 22.7897C2.9101 22.7896 2.78799 22.7655 2.67381 22.719C2.5663 22.6717 2.4692 22.6036 2.38812 22.5186C2.30704 22.4337 2.24358 22.3335 2.20138 22.2239C2.15919 22.1143 2.13909 21.9974 2.14226 21.88C2.14543 21.7626 2.17179 21.647 2.21984 21.5399C2.29059 21.3866 3.95312 17.7196 11.9356 11.7534C18.5857 6.78346 21.1149 2.61535 21.1385 2.57408C21.1981 2.47421 21.2768 2.38705 21.3701 2.31759C21.4634 2.24814 21.5694 2.19774 21.6822 2.16927C21.795 2.1408 21.9123 2.13483 22.0273 2.15168C22.1424 2.16854 22.2531 2.2079 22.3529 2.26751C22.4528 2.32713 22.54 2.40583 22.6094 2.49912C22.6789 2.59242 22.7293 2.69848 22.7577 2.81126C22.7862 2.92403 22.7922 3.04131 22.7753 3.15639C22.7585 3.27147 22.7191 3.38211 22.6595 3.48198C22.5534 3.65885 19.9535 7.96845 12.9968 13.1683C5.46825 18.7926 3.85879 22.2178 3.8411 22.2532C3.77273 22.4111 3.66006 22.5459 3.51671 22.6411C3.37337 22.7363 3.2055 22.7879 3.03342 22.7897Z" fill="#15353B"/>
<path d="M7.87362 11.8832C7.08656 11.8832 6.31718 11.6498 5.66276 11.2126C5.00834 10.7753 4.49828 10.1538 4.19709 9.42664C3.89589 8.69949 3.81708 7.89936 3.97063 7.12742C4.12418 6.35548 4.5032 5.64641 5.05973 5.08987C5.61627 4.53334 6.32533 4.15433 7.09726 4.00078C7.8692 3.84723 8.66935 3.92604 9.3965 4.22724C10.1237 4.52843 10.7452 5.03849 11.1824 5.69291C11.6197 6.34732 11.8531 7.11671 11.8531 7.90377C11.8531 8.95919 11.4338 9.97138 10.6875 10.7177C9.94123 11.464 8.92904 11.8832 7.87362 11.8832ZM7.87362 4.80864C7.26173 4.81331 6.66496 4.99925 6.15871 5.34296C5.65246 5.68666 5.25945 6.17271 5.02933 6.7397C4.79921 7.30668 4.74232 7.92915 4.86584 8.52845C4.98935 9.12776 5.28775 9.67701 5.7233 10.1068C6.15885 10.5366 6.71201 10.8276 7.31291 10.9432C7.91381 11.0587 8.53547 10.9935 9.09933 10.7558C9.6632 10.5182 10.144 10.1187 10.4809 9.60795C10.8178 9.09717 10.9958 8.49798 10.9923 7.88609C10.99 7.47913 10.9075 7.07662 10.7494 6.7016C10.5914 6.32658 10.3609 5.98641 10.0712 5.70057C9.78154 5.41472 9.43834 5.18881 9.06124 5.03576C8.68415 4.88271 8.28057 4.80553 7.87362 4.80864Z" fill="#15353B"/>
<path d="M6.69451 7.14897C6.93871 7.14897 7.13667 6.95101 7.13667 6.70681C7.13667 6.46261 6.93871 6.26465 6.69451 6.26465C6.45031 6.26465 6.25235 6.46261 6.25235 6.70681C6.25235 6.95101 6.45031 7.14897 6.69451 7.14897Z" fill="#15353B"/>
<path d="M9.05273 7.14897C9.29693 7.14897 9.49489 6.95101 9.49489 6.70681C9.49489 6.46261 9.29693 6.26465 9.05273 6.26465C8.80853 6.26465 8.61057 6.46261 8.61057 6.70681C8.61057 6.95101 8.80853 7.14897 9.05273 7.14897Z" fill="#15353B"/>
<path d="M9.64227 9.64885C9.59151 9.64859 9.54164 9.63547 9.49731 9.61073C9.45299 9.58599 9.41564 9.55043 9.38877 9.50736C9.22053 9.25964 8.99487 9.05628 8.73105 8.91461C8.46723 8.77295 8.17306 8.69719 7.87363 8.69378C7.57376 8.69917 7.27949 8.77574 7.01503 8.9172C6.75057 9.05865 6.52353 9.26093 6.3526 9.50736C6.31116 9.57381 6.24503 9.62108 6.16874 9.63877C6.09245 9.65646 6.01226 9.64312 5.94581 9.60169C5.87936 9.56025 5.83209 9.49412 5.8144 9.41783C5.79671 9.34154 5.81004 9.26135 5.85148 9.1949C6.07157 8.86043 6.3713 8.58587 6.72375 8.39589C7.07619 8.2059 7.47029 8.10645 7.87067 8.10645C8.27106 8.10645 8.66518 8.2059 9.01762 8.39589C9.37006 8.58587 9.6698 8.86043 9.88989 9.1949C9.91047 9.22779 9.92435 9.26441 9.93075 9.30267C9.93715 9.34093 9.93593 9.38008 9.92717 9.41788C9.91841 9.45567 9.90227 9.49136 9.87969 9.5229C9.8571 9.55444 9.82851 9.58122 9.79556 9.60169C9.74956 9.63073 9.69665 9.64701 9.64227 9.64885Z" fill="#15353B"/>
<path d="M17.0706 21.0624C16.2835 21.0624 15.5141 20.829 14.8597 20.3918C14.2053 19.9545 13.6952 19.333 13.394 18.6058C13.0929 17.8787 13.014 17.0786 13.1676 16.3066C13.3211 15.5347 13.7001 14.8256 14.2567 14.2691C14.8132 13.7125 15.5223 13.3335 16.2942 13.18C17.0662 13.0264 17.8663 13.1052 18.5935 13.4064C19.3206 13.7076 19.9421 14.2177 20.3794 14.8721C20.8166 15.5265 21.05 16.2959 21.05 17.083C21.0485 18.1379 20.6287 19.1492 19.8828 19.8951C19.1368 20.6411 18.1255 21.0609 17.0706 21.0624ZM17.0706 13.9878C16.4584 13.9878 15.86 14.1694 15.351 14.5095C14.842 14.8496 14.4453 15.333 14.211 15.8985C13.9768 16.4641 13.9155 17.0864 14.0349 17.6868C14.1544 18.2872 14.4491 18.8387 14.882 19.2716C15.3149 19.7044 15.8663 19.9992 16.4667 20.1186C17.0671 20.2381 17.6895 20.1768 18.255 19.9425C18.8206 19.7082 19.304 19.3115 19.6441 18.8025C19.9842 18.2935 20.1657 17.6951 20.1657 17.083C20.1657 16.2621 19.8396 15.4748 19.2592 14.8944C18.6787 14.3139 17.8915 13.9878 17.0706 13.9878Z" fill="#15353B"/>
<path d="M15.8915 16.346C16.1357 16.346 16.3336 16.148 16.3336 15.9038C16.3336 15.6596 16.1357 15.4617 15.8915 15.4617C15.6473 15.4617 15.4493 15.6596 15.4493 15.9038C15.4493 16.148 15.6473 16.346 15.8915 16.346Z" fill="#15353B"/>
<path d="M18.2497 16.346C18.4939 16.346 18.6918 16.148 18.6918 15.9038C18.6918 15.6596 18.4939 15.4617 18.2497 15.4617C18.0055 15.4617 17.8075 15.6596 17.8075 15.9038C17.8075 16.148 18.0055 16.346 18.2497 16.346Z" fill="#15353B"/>
<path d="M17.0706 19.1465C16.6699 19.141 16.2767 19.0383 15.9244 18.8473C15.5722 18.6563 15.2716 18.3827 15.0484 18.0499C15.0282 18.0172 15.0148 17.9807 15.0089 17.9426C15.003 17.9046 15.0048 17.8657 15.0142 17.8284C15.0235 17.791 15.0402 17.7559 15.0633 17.7251C15.0864 17.6943 15.1154 17.6685 15.1486 17.649C15.1808 17.6278 15.217 17.6133 15.255 17.6066C15.293 17.5998 15.3319 17.6009 15.3695 17.6097C15.407 17.6185 15.4423 17.6349 15.4733 17.6579C15.5043 17.6809 15.5302 17.71 15.5495 17.7434C15.7157 17.9939 15.9413 18.1994 16.2062 18.3415C16.4711 18.4837 16.767 18.5581 17.0676 18.5581C17.3682 18.5581 17.6642 18.4837 17.9291 18.3415C18.194 18.1994 18.4195 17.9939 18.5857 17.7434C18.6056 17.7098 18.6321 17.6806 18.6636 17.6576C18.6951 17.6345 18.7309 17.6181 18.7689 17.6093C18.807 17.6005 18.8464 17.5994 18.8848 17.6063C18.9232 17.6131 18.9599 17.6277 18.9925 17.649C19.0259 17.6684 19.055 17.6943 19.078 17.7253C19.1009 17.7562 19.1174 17.7916 19.1262 17.8291C19.135 17.8667 19.1361 17.9056 19.1293 17.9436C19.1226 17.9816 19.1081 18.0178 19.0868 18.0499C18.8657 18.3833 18.5663 18.6575 18.2149 18.8486C17.8635 19.0398 17.4706 19.142 17.0706 19.1465Z" fill="#15353B"/>
</svg>
