<svg width="63" height="63" viewBox="0 0 63 63" fill="none" xmlns="http://www.w3.org/2000/svg">
<circle cx="31.5" cy="31.5" r="31.5" fill="#7AAFB9"/>
<path fill-rule="evenodd" clip-rule="evenodd" d="M15.5858 15.5858C16.3668 14.8047 17.6332 14.8047 18.4142 15.5858L47.4191 44.5907C48.2002 45.3717 48.2002 46.6381 47.4191 47.4191C46.6381 48.2002 45.3717 48.2002 44.5907 47.4191L15.5858 18.4142C14.8047 17.6332 14.8047 16.3668 15.5858 15.5858Z" fill="white"/>
<path fill-rule="evenodd" clip-rule="evenodd" d="M47.4191 16.3109C46.638 15.5298 45.3717 15.5298 44.5907 16.3109L15.5858 45.3158C14.8047 46.0968 14.8047 47.3632 15.5858 48.1442C16.3668 48.9253 17.6332 48.9253 18.4142 48.1442L47.4191 19.1393C48.2001 18.3583 48.2001 17.0919 47.4191 16.3109Z" fill="white"/>
</svg>
