<svg width="29" height="30" viewBox="0 0 29 30" fill="none" xmlns="http://www.w3.org/2000/svg">
<g clip-path="url(#clip0_594_3685)">
<path d="M24.4939 29.6428H4.30347C3.16212 29.6428 2.06751 29.1902 1.26046 28.3845C0.4534 27.5789 0 26.4861 0 25.3467L0 8.34842C0 7.20901 0.4534 6.11628 1.26046 5.3106C2.06751 4.50492 3.16212 4.0523 4.30347 4.0523H24.4939C25.6353 4.0523 26.7299 4.50492 27.5369 5.3106C28.344 6.11628 28.7974 7.20901 28.7974 8.34842V25.3324C28.7993 25.8978 28.6893 26.458 28.4739 26.9808C28.2585 27.5037 27.9418 27.979 27.542 28.3795C27.1422 28.7799 26.6671 29.0977 26.1441 29.3144C25.621 29.5312 25.0602 29.6428 24.4939 29.6428ZM4.30347 6.39368C3.78349 6.39368 3.28471 6.5994 2.91635 6.96577C2.548 7.33215 2.34011 7.82933 2.33822 8.34842V25.3324C2.34388 25.849 2.55343 26.3425 2.92138 26.7058C3.28932 27.0691 3.78596 27.2728 4.30347 27.2728H24.4939C25.0151 27.2728 25.515 27.0661 25.8835 26.6982C26.2521 26.3303 26.4591 25.8312 26.4591 25.3109V8.34842C26.4591 8.09111 26.4083 7.83634 26.3094 7.59871C26.2106 7.36109 26.0657 7.14528 25.8831 6.96367C25.7005 6.78207 25.4838 6.63823 25.2454 6.54042C25.007 6.44261 24.7516 6.39274 24.4939 6.39368H4.30347Z" fill="#15353B"/>
<path d="M7.237 9.64441C6.95166 9.64441 6.67801 9.53125 6.47625 9.32984C6.27448 9.12842 6.16113 8.85523 6.16113 8.57038V1.85412C6.16113 1.56927 6.27448 1.29609 6.47625 1.09467C6.67801 0.893247 6.95166 0.78009 7.237 0.78009C7.52234 0.78009 7.79599 0.893247 7.99775 1.09467C8.19952 1.29609 8.31287 1.56927 8.31287 1.85412V8.57038C8.31287 8.85523 8.19952 9.12842 7.99775 9.32984C7.79599 9.53125 7.52234 9.64441 7.237 9.64441Z" fill="#15353B"/>
<path d="M21.582 9.64441C21.2966 9.64441 21.023 9.53125 20.8212 9.32984C20.6195 9.12842 20.5061 8.85523 20.5061 8.57038V1.85412C20.5061 1.56927 20.6195 1.29609 20.8212 1.09467C21.023 0.893247 21.2966 0.78009 21.582 0.78009C21.8673 0.78009 22.141 0.893247 22.3427 1.09467C22.5445 1.29609 22.6578 1.56927 22.6578 1.85412V8.57038C22.6578 8.85523 22.5445 9.12842 22.3427 9.32984C22.141 9.53125 21.8673 9.64441 21.582 9.64441Z" fill="#15353B"/>
<path d="M10.0772 16.5325H7.20819C6.92285 16.5325 6.6492 16.4194 6.44744 16.2179C6.24567 16.0165 6.13232 15.7433 6.13232 15.4585C6.13232 15.1736 6.24567 14.9005 6.44744 14.699C6.6492 14.4976 6.92285 14.3845 7.20819 14.3845H10.0772C10.3625 14.3845 10.6362 14.4976 10.8379 14.699C11.0397 14.9005 11.153 15.1736 11.153 15.4585C11.153 15.7433 11.0397 16.0165 10.8379 16.2179C10.6362 16.4194 10.3625 16.5325 10.0772 16.5325Z" fill="#15353B"/>
<path d="M10.0772 22.5184H7.20819C6.92285 22.5184 6.6492 22.4053 6.44744 22.2039C6.24567 22.0024 6.13232 21.7293 6.13232 21.4444C6.13232 21.1596 6.24567 20.8864 6.44744 20.685C6.6492 20.4835 6.92285 20.3704 7.20819 20.3704H10.0772C10.3625 20.3704 10.6362 20.4835 10.8379 20.685C11.0397 20.8864 11.153 21.1596 11.153 21.4444C11.153 21.7293 11.0397 22.0024 10.8379 22.2039C10.6362 22.4053 10.3625 22.5184 10.0772 22.5184Z" fill="#15353B"/>
<path d="M21.6106 16.5325H18.7416C18.4563 16.5325 18.1827 16.4194 17.9809 16.2179C17.7791 16.0165 17.6658 15.7433 17.6658 15.4585C17.6658 15.1736 17.7791 14.9005 17.9809 14.699C18.1827 14.4976 18.4563 14.3845 18.7416 14.3845H21.6106C21.896 14.3845 22.1696 14.4976 22.3714 14.699C22.5731 14.9005 22.6865 15.1736 22.6865 15.4585C22.6865 15.7433 22.5731 16.0165 22.3714 16.2179C22.1696 16.4194 21.896 16.5325 21.6106 16.5325Z" fill="#15353B"/>
<path d="M21.6106 22.5184H18.7416C18.4563 22.5184 18.1827 22.4053 17.9809 22.2039C17.7791 22.0024 17.6658 21.7293 17.6658 21.4444C17.6658 21.1596 17.7791 20.8864 17.9809 20.685C18.1827 20.4835 18.4563 20.3704 18.7416 20.3704H21.6106C21.896 20.3704 22.1696 20.4835 22.3714 20.685C22.5731 20.8864 22.6865 21.1596 22.6865 21.4444C22.6865 21.7293 22.5731 22.0024 22.3714 22.2039C22.1696 22.4053 21.896 22.5184 21.6106 22.5184Z" fill="#15353B"/>
</g>
<defs>
<clipPath id="clip0_594_3685">
<rect width="28.8189" height="28.8627" fill="white" transform="translate(0 0.78009)"/>
</clipPath>
</defs>
</svg>
