<svg width="29" height="24" viewBox="0 0 29 24" fill="none" xmlns="http://www.w3.org/2000/svg">
<path d="M14.4461 19.8875C13.9118 19.887 13.3792 19.8332 12.8579 19.7271C11.1015 19.364 9.56519 18.4066 8.56414 17.0513C7.56308 15.696 7.17312 14.0456 7.47425 12.4384C7.77538 10.8313 8.74478 9.38937 10.1836 8.40828C11.6224 7.4272 13.4216 6.98135 15.2122 7.16218C17.0028 7.34302 18.6491 8.13683 19.8134 9.38081C20.9777 10.6248 21.5718 12.2246 21.4738 13.8523C21.3758 15.4799 20.5932 17.0119 19.2864 18.1341C17.9797 19.2564 16.2479 19.8837 14.4461 19.8875ZM14.4461 9.19453C13.2145 9.19448 12.0295 9.62065 11.1341 10.3857C10.2386 11.1507 9.70049 12.1967 9.63008 13.3091C9.55966 14.4215 9.96226 15.5162 10.7553 16.3687C11.5484 17.2212 12.6719 17.767 13.8955 17.8942C15.119 18.0213 16.35 17.7202 17.3361 17.0526C18.3222 16.385 18.9886 15.4014 19.1988 14.3035C19.4091 13.2056 19.1471 12.0765 18.4667 11.1477C17.7863 10.2189 16.739 9.56074 15.5394 9.30815C15.1741 9.22924 14.7995 9.19109 14.424 9.19453H14.4461Z" fill="#15353B"/>
<path d="M25.5194 23.5632H3.35834C2.47672 23.5632 1.63121 23.2464 1.00781 22.6824C0.384405 22.1184 0.0341797 21.3534 0.0341797 20.5558V7.18959C0.0341797 6.39198 0.384405 5.62704 1.00781 5.06304C1.63121 4.49904 2.47672 4.18219 3.35834 4.18219H7.46554C7.53106 4.18261 7.59543 4.16659 7.6515 4.13592C7.70757 4.10525 7.75314 4.06112 7.78317 4.00843L9.06851 1.86984C9.09054 1.83491 9.11522 1.80142 9.14238 1.76959C9.36717 1.4821 9.665 1.24767 10.0108 1.08601C10.3566 0.92435 10.7403 0.840199 11.1295 0.840637H17.7409C18.1301 0.840199 18.5138 0.92435 18.8596 1.08601C19.2054 1.24767 19.5032 1.4821 19.728 1.76959C19.7551 1.80142 19.7798 1.83491 19.8018 1.86984L21.0872 4.00843C21.1172 4.06112 21.1628 4.10525 21.2189 4.13592C21.2749 4.16659 21.3393 4.18261 21.4048 4.18219H25.5194C26.4004 4.18396 27.2448 4.50138 27.8678 5.06499C28.4907 5.6286 28.8416 6.39252 28.8435 7.18959V20.5558C28.8416 21.3529 28.4907 22.1168 27.8678 22.6804C27.2448 23.244 26.4004 23.5615 25.5194 23.5632ZM3.35834 6.18713C3.06446 6.18713 2.78264 6.29274 2.57484 6.48074C2.36704 6.66874 2.25028 6.92372 2.25028 7.18959V20.5558C2.25028 20.8217 2.36704 21.0767 2.57484 21.2647C2.78264 21.4527 3.06446 21.5583 3.35834 21.5583H25.5194C25.8133 21.5583 26.0951 21.4527 26.3029 21.2647C26.5107 21.0767 26.6274 20.8217 26.6274 20.5558V7.18959C26.6274 6.92372 26.5107 6.66874 26.3029 6.48074C26.0951 6.29274 25.8133 6.18713 25.5194 6.18713H21.4048C20.9401 6.18713 20.4839 6.07348 20.0847 5.85819C19.6855 5.6429 19.3581 5.33398 19.137 4.96412L17.8664 2.90572C17.847 2.88604 17.8231 2.87046 17.7963 2.86007C17.7695 2.84968 17.7405 2.84473 17.7113 2.84557H11.0999C11.0708 2.84473 11.0418 2.84968 11.015 2.86007C10.9882 2.87046 10.9642 2.88604 10.9448 2.90572L9.74073 4.96412C9.51967 5.33398 9.19222 5.6429 8.793 5.85819C8.39379 6.07348 7.93767 6.18713 7.47291 6.18713H3.35834Z" fill="#15353B"/>
</svg>
