<svg width="43" height="42" viewBox="0 0 43 42" fill="none" xmlns="http://www.w3.org/2000/svg">
<circle cx="21.2976" cy="20.7659" r="20.7659" fill="#7AAFB9" fill-opacity="0.42"/>
<path d="M21.2751 24.8225C21.0558 24.8217 20.8456 24.7344 20.6901 24.5796L15.2427 19.1322C15.0868 18.977 14.9989 18.7663 14.9984 18.5464C14.9979 18.3264 15.0848 18.1153 15.2399 17.9594C15.3951 17.8035 15.6058 17.7156 15.8258 17.7151C16.0457 17.7146 16.2569 17.8015 16.4128 17.9566L21.2751 22.8245L26.1375 17.9566C26.2934 17.8015 26.5046 17.7146 26.7245 17.7151C26.9445 17.7156 27.1552 17.8035 27.3103 17.9594C27.4655 18.1153 27.5524 18.3264 27.5519 18.5464C27.5513 18.7663 27.4635 18.977 27.3076 19.1322L21.8602 24.5796C21.7047 24.7344 21.4945 24.8217 21.2751 24.8225Z" fill="#15353B"/>
<path d="M21.2751 24.8224C21.0556 24.8224 20.845 24.7352 20.6897 24.5799C20.5345 24.4247 20.4473 24.2141 20.4473 23.9945V11.9352C20.4473 11.7156 20.5345 11.505 20.6897 11.3498C20.845 11.1945 21.0556 11.1073 21.2751 11.1073C21.4947 11.1073 21.7053 11.1945 21.8605 11.3498C22.0158 11.505 22.103 11.7156 22.103 11.9352V23.9945C22.103 24.2141 22.0158 24.4247 21.8605 24.5799C21.7053 24.7352 21.4947 24.8224 21.2751 24.8224Z" fill="#15353B"/>
<path d="M27.6222 30.4244H14.9281C14.1781 30.3999 13.4679 30.0808 12.9514 29.5364C12.4349 28.992 12.1536 28.2661 12.1685 27.5158V21.8697C12.1685 21.6501 12.2558 21.4395 12.411 21.2843C12.5663 21.129 12.7768 21.0418 12.9964 21.0418C13.216 21.0418 13.4265 21.129 13.5818 21.2843C13.7371 21.4395 13.8243 21.6501 13.8243 21.8697V27.5158C13.8076 27.8276 13.9138 28.1335 14.1202 28.3677C14.3266 28.602 14.6167 28.746 14.9281 28.7686H27.6222C27.9336 28.746 28.2237 28.602 28.4301 28.3677C28.6365 28.1335 28.7427 27.8276 28.726 27.5158V21.8697C28.726 21.6501 28.8132 21.4395 28.9685 21.2843C29.1238 21.129 29.3343 21.0418 29.5539 21.0418C29.7735 21.0418 29.984 21.129 30.1393 21.2843C30.2945 21.4395 30.3818 21.6501 30.3818 21.8697V27.5158C30.3967 28.2661 30.1154 28.992 29.5989 29.5364C29.0824 30.0808 28.3722 30.3999 27.6222 30.4244Z" fill="#15353B"/>
</svg>
