<svg width="29" height="28" viewBox="0 0 29 28" fill="none" xmlns="http://www.w3.org/2000/svg">
<g clip-path="url(#clip0_635_2155)">
<path d="M20.1712 27.4628H4.09166C3.02611 27.461 2.00476 27.0701 1.25131 26.3755C0.497852 25.681 0.0737094 24.7396 0.0717773 23.7574L0.0717773 7.48035C0.0717773 6.4976 0.495299 5.55511 1.24917 4.8602C2.00305 4.1653 3.02552 3.7749 4.09166 3.7749H14.251C14.5418 3.7749 14.8206 3.88137 15.0262 4.07089C15.2318 4.26041 15.3473 4.51746 15.3473 4.78548C15.3473 5.0535 15.2318 5.31054 15.0262 5.50006C14.8206 5.68958 14.5418 5.79605 14.251 5.79605H4.09166C3.60705 5.79605 3.14229 5.97351 2.79962 6.28937C2.45695 6.60524 2.26444 7.03365 2.26444 7.48035V23.7574C2.26444 24.2041 2.45695 24.6325 2.79962 24.9483C3.14229 25.2642 3.60705 25.4417 4.09166 25.4417H20.1712C20.6558 25.4417 21.1205 25.2642 21.4632 24.9483C21.8059 24.6325 21.9984 24.2041 21.9984 23.7574V14.2175C21.9984 13.9495 22.1139 13.6925 22.3195 13.5029C22.5251 13.3134 22.804 13.2069 23.0947 13.2069C23.3855 13.2069 23.6643 13.3134 23.8699 13.5029C24.0755 13.6925 24.1911 13.9495 24.1911 14.2175V23.7574C24.1891 24.7396 23.765 25.681 23.0115 26.3755C22.2581 27.0701 21.2367 27.461 20.1712 27.4628Z" fill="#15353B"/>
<path d="M12.336 16.6429C12.1991 16.6449 12.0633 16.6183 11.9391 16.565C11.8149 16.5117 11.7054 16.4331 11.6189 16.3352C11.5324 16.2373 11.4711 16.1226 11.4396 15.9997C11.4081 15.8767 11.4072 15.7489 11.4371 15.6256L12.1679 12.5063C12.2337 12.227 12.3831 11.9702 12.5992 11.7652L23.8329 1.43037C24.047 1.24781 24.2985 1.10646 24.5726 1.0146C24.8467 0.922742 25.1379 0.882213 25.4292 0.895388C25.7206 0.908563 26.0061 0.975178 26.2691 1.09133C26.5322 1.20749 26.7674 1.37085 26.9611 1.57185L27.787 2.33315C28.004 2.51262 28.1801 2.73019 28.3048 2.97314C28.4295 3.21608 28.5004 3.47951 28.5133 3.74802C28.5263 4.01653 28.481 4.28472 28.3801 4.53689C28.2792 4.78907 28.1248 5.02016 27.9259 5.21666L16.7141 15.538C16.4916 15.7372 16.2131 15.8749 15.9101 15.9355L12.5261 16.6092L12.336 16.6429ZM13.9586 12.9172L13.5347 14.6959L15.4642 14.3051L26.6322 4.0107C26.7126 3.93659 26.698 3.70079 26.4933 3.50542L25.6528 2.75085C25.4409 2.56221 25.185 2.54874 25.1046 2.62285L13.9586 12.9172Z" fill="#15353B"/>
<path d="M25.7258 6.88073C25.6058 6.88156 25.487 6.85989 25.3764 6.81703C25.2658 6.77418 25.1659 6.71104 25.0826 6.63146L22.2833 4.05112C22.1982 3.97289 22.1307 3.87996 22.0847 3.77765C22.0386 3.67533 22.0149 3.56565 22.0149 3.45488C22.0149 3.34411 22.0386 3.23442 22.0847 3.13211C22.1307 3.0298 22.1982 2.93687 22.2833 2.85864C22.4565 2.70348 22.6886 2.61668 22.9301 2.61668C23.1717 2.61668 23.4037 2.70348 23.577 2.85864L26.3836 5.43898C26.5519 5.59867 26.6461 5.81256 26.6461 6.03522C26.6461 6.25788 26.5519 6.47176 26.3836 6.63146C26.2976 6.71144 26.1951 6.7747 26.0821 6.81752C25.9691 6.86034 25.8479 6.88183 25.7258 6.88073Z" fill="#15353B"/>
</g>
<defs>
<clipPath id="clip0_635_2155">
<rect width="28.4315" height="26.5647" fill="white" transform="translate(0.0717773 0.898132)"/>
</clipPath>
</defs>
</svg>
