<svg id="Capa_1" data-name="Capa 1" xmlns="http://www.w3.org/2000/svg" xmlns:xlink="http://www.w3.org/1999/xlink" viewBox="0 0 390 844"><defs><style>.cls-1,.cls-4,.cls-6,.cls-7{fill:none;}.cls-2{clip-path:url(#clip-path);}.cls-3{fill:#fff;}.cls-4,.cls-6{stroke:#7aafb9;}.cls-4,.cls-6,.cls-7{stroke-linecap:round;}.cls-4,.cls-7{stroke-opacity:0.28;}.cls-4{stroke-width:75px;}.cls-5{clip-path:url(#clip-path-2);}.cls-6{stroke-opacity:0.42;stroke-width:53.37px;}.cls-7{stroke:#b08dba;stroke-width:77.77px;}.cls-8{clip-path:url(#clip-path-3);}.cls-9{clip-path:url(#clip-path-4);}</style><clipPath id="clip-path"><rect class="cls-1" width="390" height="844"/></clipPath><clipPath id="clip-path-2"><rect class="cls-1" x="410" width="390" height="844"/></clipPath><clipPath id="clip-path-3"><rect class="cls-1" y="864" width="390" height="844"/></clipPath><clipPath id="clip-path-4"><rect class="cls-1" x="410" y="864" width="390" height="844"/></clipPath></defs><g class="cls-2"><rect class="cls-3" width="390" height="844"/><path class="cls-4" d="M-27,565.5C-1-73,710.17,371,907,66.5"/><path class="cls-4" d="M-54,444.5C-42.5-29.5,179,276.5,336.5-7"/></g><g class="cls-5"><path class="cls-6" d="M395,626c38,28.06,139.67,236.36,547,174.62"/><path class="cls-4" d="M349,231.5c31.5-128,336.17,124.54,533-180"/><path class="cls-7" d="M320,677.23c34,22.86,162.57,214.63,523.18,158.29"/></g><g class="cls-8"><path class="cls-4" d="M-63,1308.5c11.5-474,233-168,390.5-451.5"/></g></svg>