<svg id="Capa_1" data-name="Capa 1" xmlns="http://www.w3.org/2000/svg" xmlns:xlink="http://www.w3.org/1999/xlink" viewBox="0 0 390 844"><defs><style>.cls-1,.cls-10,.cls-11,.cls-12,.cls-14,.cls-3,.cls-5,.cls-7{fill:none;}.cls-2{clip-path:url(#clip-path);}.cls-3,.cls-5{stroke:#b08dba;}.cls-10,.cls-11,.cls-12,.cls-14,.cls-3,.cls-5,.cls-7{stroke-linecap:round;}.cls-12,.cls-3,.cls-7{stroke-opacity:0.28;}.cls-12,.cls-3,.cls-5{stroke-width:77.77px;}.cls-4{clip-path:url(#clip-path-2);}.cls-14,.cls-5{stroke-opacity:0.22;}.cls-6{clip-path:url(#clip-path-3);}.cls-12,.cls-7{stroke:#7aafb9;}.cls-7{stroke-width:75px;}.cls-8{clip-path:url(#clip-path-4);}.cls-9{fill:#fff;}.cls-10,.cls-11,.cls-14{stroke:#c7f0f7;}.cls-10,.cls-11{stroke-opacity:0.29;}.cls-10,.cls-14{stroke-width:53.37px;}.cls-11{stroke-width:68.9px;}.cls-13{clip-path:url(#clip-path-5);}</style><clipPath id="clip-path"><rect class="cls-1" y="-864" width="390" height="844"/></clipPath><clipPath id="clip-path-2"><rect class="cls-1" x="410" y="-864" width="390" height="844"/></clipPath><clipPath id="clip-path-3"><rect class="cls-1" x="-410" width="390" height="844"/></clipPath><clipPath id="clip-path-4"><rect class="cls-1" width="390" height="844"/></clipPath><clipPath id="clip-path-5"><rect class="cls-1" x="410" width="390" height="844"/></clipPath></defs><g class="cls-2"><path class="cls-3" d="M-90-186.77C-56-163.91,72.57,27.86,433.18-28.48"/></g><g class="cls-4"><path class="cls-5" d="M827.52-265.6C757-197.6,643-15.1,219-38.1"/></g><g class="cls-6"><path class="cls-7" d="M-446,565.5C-420-73,291.17,371,488,66.5"/></g><g class="cls-8"><rect class="cls-9" width="390" height="844"/><path class="cls-10" d="M-49,658c34,19.77,125.12,166.47,490,123"/><path class="cls-11" d="M49-23C78.86-2.33,158.79,151.09,479,105.62"/><path class="cls-12" d="M-69,689c33.7,23.33,123.91,196.49,485.26,145.16"/><path class="cls-7" d="M-493,573C-467-65.5,244.18,378.54,441,74"/></g><g class="cls-13"><path class="cls-14" d="M838.5,448.5c-20.69,25.05,77.5,304-418.5,413M858.5,344C726,546,886,685.5,390,794.5"/></g></svg>