<svg id="Capa_1" data-name="Capa 1" xmlns="http://www.w3.org/2000/svg" xmlns:xlink="http://www.w3.org/1999/xlink" viewBox="0 0 390 844"><defs><style>.cls-1,.cls-10,.cls-3,.cls-5,.cls-6,.cls-7{fill:none;}.cls-2{clip-path:url(#clip-path);}.cls-3,.cls-5{stroke:#7aafb9;}.cls-10,.cls-3,.cls-5,.cls-6,.cls-7{stroke-linecap:round;}.cls-3,.cls-6{stroke-opacity:0.28;}.cls-3{stroke-width:75px;}.cls-4{clip-path:url(#clip-path-2);}.cls-5{stroke-opacity:0.42;stroke-width:53.37px;}.cls-10,.cls-6{stroke:#b08dba;stroke-width:77.77px;}.cls-7{stroke:#c7f0f7;stroke-opacity:0.29;stroke-width:68.9px;}.cls-8{clip-path:url(#clip-path-3);}.cls-9{fill:#fff;}.cls-10{stroke-opacity:0.22;}.cls-11{clip-path:url(#clip-path-4);}.cls-12{clip-path:url(#clip-path-5);}.cls-13{clip-path:url(#clip-path-6);}</style><clipPath id="clip-path"><rect class="cls-1" x="-820" width="390" height="844"/></clipPath><clipPath id="clip-path-2"><rect class="cls-1" x="-410" width="390" height="844"/></clipPath><clipPath id="clip-path-3"><rect class="cls-1" width="390" height="844"/></clipPath><clipPath id="clip-path-4"><rect class="cls-1" x="410" width="390" height="844"/></clipPath><clipPath id="clip-path-5"><rect class="cls-1" x="-820" y="864" width="390" height="844"/></clipPath><clipPath id="clip-path-6"><rect class="cls-1" x="-410" y="864" width="390" height="844"/></clipPath></defs><g class="cls-2"><path class="cls-3" d="M-847,565.5C-821-73-109.83,371,87,66.5"/></g><g class="cls-4"><path class="cls-5" d="M-425,626c38,28.06,139.67,236.36,547,174.62"/><path class="cls-3" d="M-471,231.5c31.5-128,336.17,124.54,533-180"/><path class="cls-6" d="M-500,677.23c34,22.86,162.57,214.63,523.18,158.29"/><path class="cls-7" d="M-270,0c29.86,20.67,109.79,174.09,430,128.62"/></g><g class="cls-8"><rect class="cls-9" width="390" height="844"/><path class="cls-10" d="M417.52,598.4C347,666.4,233,848.9-191,825.9"/></g><g class="cls-11"><path class="cls-10" d="M304,641c36.6,37,198,267,581,229"/></g><g class="cls-13"><path class="cls-7" d="M-361,841c29.86,20.67,109.79,174.09,430,128.62"/></g></svg>