<svg id="Capa_1" data-name="Capa 1" xmlns="http://www.w3.org/2000/svg" xmlns:xlink="http://www.w3.org/1999/xlink" viewBox="0 0 390 844"><defs><style>.cls-1,.cls-10,.cls-3,.cls-6,.cls-7,.cls-8{fill:none;}.cls-2{clip-path:url(#clip-path);}.cls-3,.cls-6{stroke:#7aafb9;}.cls-10,.cls-3,.cls-6,.cls-7,.cls-8{stroke-linecap:round;}.cls-3,.cls-7{stroke-opacity:0.28;}.cls-3{stroke-width:75px;}.cls-4{clip-path:url(#clip-path-2);}.cls-5{fill:#fff;}.cls-6{stroke-opacity:0.42;stroke-width:53.37px;}.cls-10,.cls-7{stroke:#b08dba;stroke-width:77.77px;}.cls-8{stroke:#c7f0f7;stroke-opacity:0.29;stroke-width:68.9px;}.cls-9{clip-path:url(#clip-path-3);}.cls-10{stroke-opacity:0.22;}.cls-11{clip-path:url(#clip-path-4);}.cls-12{clip-path:url(#clip-path-5);}</style><clipPath id="clip-path"><rect class="cls-1" x="-410" width="390" height="844"/></clipPath><clipPath id="clip-path-2"><rect class="cls-1" width="390" height="844"/></clipPath><clipPath id="clip-path-3"><rect class="cls-1" x="410" width="390" height="844"/></clipPath><clipPath id="clip-path-4"><rect class="cls-1" x="-410" y="864" width="390" height="844"/></clipPath><clipPath id="clip-path-5"><rect class="cls-1" y="864" width="390" height="844"/></clipPath></defs><g class="cls-2"><path class="cls-3" d="M-437,565.5C-411-73,300.17,371,497,66.5"/></g><g class="cls-4"><rect class="cls-5" width="390" height="844"/><path class="cls-6" d="M-15,626c38,28.06,139.67,236.36,547,174.62"/><path class="cls-3" d="M-61,231.5c31.5-128,336.17,124.54,533-180"/><path class="cls-7" d="M-90,677.23c34,22.86,162.57,214.63,523.18,158.29"/><path class="cls-8" d="M140,0c29.86,20.67,109.79,174.09,430,128.62"/></g><g class="cls-9"><path class="cls-10" d="M827.52,598.4C757,666.4,643,848.9,219,825.9"/></g><g class="cls-12"><path class="cls-8" d="M49,841c29.86,20.67,109.79,174.09,430,128.62"/></g></svg>