<svg id="Capa_1" data-name="Capa 1" xmlns="http://www.w3.org/2000/svg" xmlns:xlink="http://www.w3.org/1999/xlink" viewBox="0 0 390 844"><defs><style>.cls-1,.cls-10,.cls-11,.cls-12,.cls-15,.cls-17,.cls-3,.cls-5,.cls-8{fill:none;}.cls-2{clip-path:url(#clip-path);}.cls-3,.cls-5{stroke:#b08dba;}.cls-10,.cls-11,.cls-12,.cls-15,.cls-17,.cls-3,.cls-5,.cls-8{stroke-linecap:round;}.cls-12,.cls-3,.cls-8{stroke-opacity:0.28;}.cls-12,.cls-17,.cls-3,.cls-5{stroke-width:77.77px;}.cls-4{clip-path:url(#clip-path-2);}.cls-15,.cls-5{stroke-opacity:0.22;}.cls-6{clip-path:url(#clip-path-3);}.cls-7{clip-path:url(#clip-path-4);}.cls-12,.cls-8{stroke:#7aafb9;}.cls-8{stroke-width:75px;}.cls-9{clip-path:url(#clip-path-5);}.cls-10,.cls-11,.cls-15{stroke:#c7f0f7;}.cls-10,.cls-11{stroke-opacity:0.29;}.cls-10,.cls-15{stroke-width:53.37px;}.cls-11{stroke-width:68.9px;}.cls-13{clip-path:url(#clip-path-6);}.cls-14{fill:#fff;}.cls-16{clip-path:url(#clip-path-7);}.cls-17{stroke:#effbfd;}</style><clipPath id="clip-path"><rect class="cls-1" x="-410" y="-864" width="390" height="844"/></clipPath><clipPath id="clip-path-2"><rect class="cls-1" y="-864" width="390" height="844"/></clipPath><clipPath id="clip-path-3"><rect class="cls-1" x="410" y="-864" width="390" height="844"/></clipPath><clipPath id="clip-path-4"><rect class="cls-1" x="-820" width="390" height="844"/></clipPath><clipPath id="clip-path-5"><rect class="cls-1" x="-410" width="390" height="844"/></clipPath><clipPath id="clip-path-6"><rect class="cls-1" width="390" height="844"/></clipPath><clipPath id="clip-path-7"><rect class="cls-1" x="410" width="390" height="844"/></clipPath></defs><g class="cls-2"><path class="cls-3" d="M-500-186.77C-466-163.91-337.43,27.86,23.18-28.48"/></g><g class="cls-4"><path class="cls-5" d="M417.52-265.6C347-197.6,233-15.1-191-38.1"/></g><g class="cls-6"><path class="cls-5" d="M304-223C340.6-186,502,44,885,6"/></g><g class="cls-7"><path class="cls-8" d="M-856,565.5C-830-73-118.83,371,78,66.5"/></g><g class="cls-9"><path class="cls-10" d="M-459,658c34,19.77,125.12,166.47,490,123"/><path class="cls-11" d="M-361-23C-331.14-2.33-251.21,151.09,69,105.62"/><path class="cls-12" d="M-479,689c33.7,23.33,123.91,196.49,485.26,145.16"/><path class="cls-8" d="M-903,573C-877-65.5-165.82,378.54,31,74"/></g><g class="cls-13"><rect class="cls-14" width="390" height="844"/><path class="cls-15" d="M428.5,448.5c-20.69,25.05,77.5,304-418.5,413M448.5,344C316,546,476,685.5-20,794.5"/></g><g class="cls-16"><path class="cls-17" d="M304,641c36.6,37,198,267,581,229"/></g></svg>