<svg width="112" height="112" viewBox="0 0 112 112" fill="none" xmlns="http://www.w3.org/2000/svg">
<circle cx="56" cy="56" r="55.5" fill="white" fill-opacity="0.48" stroke="black"/>
<path d="M63.9142 50.22V28.9672C63.9142 27.989 63.1139 27.2776 62.2246 27.2776C61.2465 27.2776 60.5351 28.0779 60.5351 28.9672V83.1219C60.5351 84.1 61.3354 84.8114 62.2246 84.8114C63.2028 84.8114 63.9142 84.0111 63.9142 83.1219V53.688C79.3869 54.5773 91.7474 67.4712 91.7474 83.1219C91.7474 84.1 92.5477 84.8114 93.4369 84.8114C94.4151 84.8114 95.1265 84.0111 95.1265 83.1219C95.1265 65.5149 81.2543 51.1092 63.9142 50.22Z" fill="#4D7A8B"/>
<path d="M49.8642 27.1886C31.6348 27.1886 16.8734 41.95 16.8734 60.1794C16.8734 61.1576 17.6737 61.869 18.563 61.869C19.5411 61.869 20.2525 61.0686 20.2525 60.1794C20.2525 43.9063 33.5022 30.6566 49.7753 30.6566C50.7535 30.6566 51.4648 29.8563 51.4648 28.9671C51.5538 27.9889 50.8424 27.1886 49.8642 27.1886Z" fill="#4D7A8B"/>
<path d="M49.8643 50.1312C48.8861 50.1312 48.1747 50.9315 48.1747 51.8207C48.1747 68.0938 34.925 81.3435 18.652 81.3435C17.6738 81.3435 16.9624 82.1438 16.9624 83.033C16.9624 84.0112 17.7627 84.7226 18.652 84.7226C36.8814 84.7226 51.6428 69.9612 51.6428 51.7318C51.5538 50.9315 50.8424 50.1312 49.8643 50.1312Z" fill="#4D7A8B"/>
</svg>
