<svg width="114" height="114" viewBox="0 0 114 114" fill="none" xmlns="http://www.w3.org/2000/svg">
<circle cx="57" cy="57" r="57" fill="white"/>
<path d="M65.0555 51.1168V29.4845C65.0555 28.4889 64.2409 27.7648 63.3357 27.7648C62.3401 27.7648 61.616 28.5794 61.616 29.4845V84.6062C61.616 85.6019 62.4306 86.326 63.3357 86.326C64.3314 86.326 65.0555 85.5114 65.0555 84.6062V54.6468C80.8045 55.5519 93.3857 68.6761 93.3857 84.6062C93.3857 85.6019 94.2003 86.326 95.1054 86.326C96.1011 86.326 96.8252 85.5114 96.8252 84.6062C96.8252 66.6849 82.7053 52.0219 65.0555 51.1168Z" fill="#4D7A8B"/>
<path d="M50.7546 27.6741C32.1997 27.6741 17.1747 42.6991 17.1747 61.2541C17.1747 62.2497 17.9893 62.9738 18.8944 62.9738C19.89 62.9738 20.6142 62.1592 20.6142 61.2541C20.6142 44.6904 34.1004 31.2041 50.6641 31.2041C51.6597 31.2041 52.3838 30.3895 52.3838 29.4844C52.4743 28.4887 51.7502 27.6741 50.7546 27.6741Z" fill="#4D7A8B"/>
<path d="M50.7547 51.0264C49.759 51.0264 49.0349 51.841 49.0349 52.7461C49.0349 69.3098 35.5487 82.7961 18.985 82.7961C17.9893 82.7961 17.2653 83.6107 17.2653 84.5158C17.2653 85.5114 18.0799 86.2355 18.985 86.2355C37.5399 86.2355 52.5649 71.2105 52.5649 52.6556C52.4744 51.841 51.7503 51.0264 50.7547 51.0264Z" fill="#4D7A8B"/>
</svg>
