<svg width="273" height="273" viewBox="0 0 273 273" fill="none" xmlns="http://www.w3.org/2000/svg">
<circle cx="136.5" cy="136.5" r="500" fill="#2b6c78"/>
<path d="M119.512 119.856C116.804 119.856 114.834 122.072 114.834 124.534C114.834 169.591 78.1484 206.277 33.0916 206.277C30.3833 206.277 28.4136 208.492 28.4136 210.955C28.4136 213.663 30.6295 215.633 33.0916 215.633C83.5651 215.633 124.436 174.761 124.436 124.288C124.19 122.072 122.22 119.856 119.512 119.856Z" fill="white"/>
<path d="M119.512 56.3331C69.0383 56.3331 28.1671 97.2043 28.1671 147.678C28.1671 150.386 30.383 152.356 32.8452 152.356C35.5535 152.356 37.5232 150.14 37.5232 147.678C37.5232 102.621 74.2087 65.9353 119.266 65.9353C121.974 65.9353 123.944 63.7194 123.944 61.2573C124.19 58.549 122.22 56.3331 119.512 56.3331Z" fill="white"/>
<path d="M158.413 120.102V61.2576C158.413 58.5493 156.197 56.5796 153.735 56.5796C151.027 56.5796 149.057 58.7955 149.057 61.2576V211.201C149.057 213.909 151.273 215.879 153.735 215.879C156.443 215.879 158.413 213.663 158.413 211.201V129.704C201.254 132.167 235.478 167.867 235.478 211.201C235.478 213.909 237.693 215.879 240.156 215.879C242.864 215.879 244.834 213.663 244.834 211.201C244.834 162.451 206.424 122.564 158.413 120.102Z" fill="white"/>
</svg>
