<svg width="48" height="47" viewBox="0 0 48 47" fill="none" xmlns="http://www.w3.org/2000/svg">
<path d="M29.0666 36.8861C25.4189 36.8861 21.8531 35.8044 18.8202 33.7779C15.7872 31.7513 13.4233 28.8709 12.0274 25.5009C10.6315 22.1309 10.2663 18.4226 10.9779 14.845C11.6895 11.2674 13.4461 7.98115 16.0254 5.40185C18.6047 2.82254 21.8909 1.06601 25.4685 0.354386C29.0461 -0.357243 32.7544 0.00799106 36.1244 1.4039C39.4945 2.79981 42.3749 5.1637 44.4014 8.19664C46.428 11.2296 47.5096 14.7954 47.5096 18.443C47.5065 23.3335 45.5624 28.0227 42.1043 31.4808C38.6462 34.9388 33.957 36.8829 29.0666 36.8861ZM29.0666 3.56963C26.1249 3.56963 23.2493 4.44194 20.8034 6.07625C18.3574 7.71056 16.4511 10.0335 15.3253 12.7512C14.1996 15.469 13.9051 18.4595 14.479 21.3447C15.0528 24.2299 16.4694 26.8801 18.5495 28.9601C20.6296 31.0402 23.2798 32.4568 26.1649 33.0307C29.0501 33.6046 32.0406 33.31 34.7584 32.1843C37.4762 31.0586 39.7991 29.1522 41.4334 26.7063C43.0677 24.2604 43.94 21.3847 43.94 18.443C43.9337 14.5003 42.3647 10.7208 39.5767 7.9329C36.7888 5.14496 33.0093 3.57592 29.0666 3.56963Z" fill="#15353B"/>
<path d="M2.29456 47.0002C1.82162 46.9985 1.36843 46.8104 1.0333 46.4767C0.866369 46.3118 0.733836 46.1154 0.643381 45.8989C0.552925 45.6824 0.506348 45.4501 0.506348 45.2154C0.506348 44.9808 0.552925 44.7485 0.643381 44.532C0.733836 44.3155 0.866369 44.1191 1.0333 43.9542L15.3118 29.6757C15.6501 29.3604 16.0976 29.1888 16.56 29.1969C17.0224 29.2051 17.4636 29.3924 17.7906 29.7194C18.1176 30.0464 18.3049 30.4876 18.3131 30.95C18.3212 31.4124 18.1496 31.8599 17.8343 32.1982L3.55583 46.4767C3.2207 46.8104 2.7675 46.9985 2.29456 47.0002Z" fill="#15353B"/>
</svg>
