<svg width="25" height="27" viewBox="0 0 25 27" fill="none" xmlns="http://www.w3.org/2000/svg">
<path d="M20.7304 26.3705H3.77082C2.76569 26.3407 1.81397 25.952 1.12179 25.2889C0.429611 24.6257 0.0526954 23.7413 0.0726847 22.8273V6.38209C0.0507571 5.46761 0.427029 4.58226 1.11961 3.91869C1.81219 3.25512 2.76504 2.86704 3.77082 2.8389H6.32993C6.62417 2.8389 6.90635 2.94515 7.11441 3.13428C7.32247 3.32341 7.43937 3.57993 7.43937 3.8474V5.32653C7.44122 5.37949 7.46519 5.42982 7.5064 5.46729C7.54762 5.50476 7.60299 5.52655 7.66126 5.52823H16.8326C16.8915 5.52823 16.9479 5.50698 16.9895 5.46915C17.0311 5.43133 17.0545 5.38002 17.0545 5.32653V3.8474C17.0545 3.57993 17.1714 3.32341 17.3794 3.13428C17.5875 2.94515 17.8697 2.8389 18.1639 2.8389H20.7304C21.7362 2.86704 22.6891 3.25512 23.3817 3.91869C24.0742 4.58226 24.4505 5.46761 24.4286 6.38209V22.8273C24.4486 23.7413 24.0717 24.6257 23.3795 25.2889C22.6873 25.952 21.7356 26.3407 20.7304 26.3705ZM3.77082 4.8559C3.35421 4.88519 2.9666 5.06103 2.69037 5.34603C2.41414 5.63103 2.27106 6.00271 2.29156 6.38209V22.8273C2.27106 23.2067 2.41414 23.5784 2.69037 23.8634C2.9666 24.1484 3.35421 24.3242 3.77082 24.3535H20.7304C21.1478 24.3259 21.5365 24.1506 21.8131 23.8652C22.0897 23.5798 22.2321 23.2072 22.2097 22.8273V6.38209C22.2321 6.00229 22.0897 5.62964 21.8131 5.34426C21.5365 5.05887 21.1478 4.88352 20.7304 4.8559H19.2512V5.32653C19.2512 5.91496 18.994 6.4793 18.5363 6.89538C18.0786 7.31147 17.4578 7.54523 16.8104 7.54523H7.63907C6.99174 7.54523 6.37091 7.31147 5.91318 6.89538C5.45544 6.4793 5.1983 5.91496 5.1983 5.32653V4.8559H3.77082Z" fill="#15353B"/>
<path d="M16.8326 7.54519H7.66123C7.0139 7.54519 6.39308 7.31144 5.93535 6.89535C5.47761 6.47927 5.22046 5.91493 5.22046 5.3265V2.36823C5.22046 1.7798 5.47761 1.21546 5.93535 0.799378C6.39308 0.383291 7.0139 0.149536 7.66123 0.149536L16.8326 0.149536C17.4799 0.149536 18.1007 0.383291 18.5585 0.799378C19.0162 1.21546 19.2734 1.7798 19.2734 2.36823V5.3265C19.2734 5.91493 19.0162 6.47927 18.5585 6.89535C18.1007 7.31144 17.4799 7.54519 16.8326 7.54519ZM7.66123 2.16653C7.60297 2.16822 7.54759 2.19001 7.50637 2.22747C7.46516 2.26494 7.44119 2.31527 7.43934 2.36823V5.3265C7.44119 5.37946 7.46516 5.42979 7.50637 5.46726C7.54759 5.50472 7.60297 5.52651 7.66123 5.5282H16.8326C16.8914 5.5282 16.9479 5.50695 16.9895 5.46912C17.0311 5.43129 17.0545 5.37999 17.0545 5.3265V2.36823C17.0545 2.31474 17.0311 2.26344 16.9895 2.22561C16.9479 2.18778 16.8914 2.16653 16.8326 2.16653H7.66123Z" fill="#15353B"/>
</svg>
