<svg width="331" height="97" viewBox="0 0 331 97" fill="none" xmlns="http://www.w3.org/2000/svg">
<rect x="10" width="309" height="95" rx="21" fill="#FFDBDB"/>
<path d="M101.664 47C101.302 47 101.12 46.8133 101.12 46.44V36.28C101.12 35.9067 101.302 35.72 101.664 35.72H107.712C108.011 35.72 108.16 35.8587 108.16 36.136C108.16 36.424 108.011 36.568 107.712 36.568H102.08V40.856H107.392C107.691 40.856 107.84 40.9947 107.84 41.272C107.84 41.56 107.691 41.704 107.392 41.704H102.08V46.152H107.712C108.011 46.152 108.16 46.2907 108.16 46.568C108.16 46.856 108.011 47 107.712 47H101.664ZM112.535 47.128C112.055 47.128 111.575 47.064 111.095 46.936C110.625 46.808 110.177 46.5893 109.751 46.28C109.612 46.1947 109.548 46.0773 109.559 45.928C109.569 45.768 109.628 45.6453 109.735 45.56C109.852 45.4747 109.996 45.4853 110.167 45.592C110.583 45.8693 110.988 46.0613 111.383 46.168C111.777 46.2747 112.172 46.328 112.567 46.328C113.228 46.328 113.724 46.2107 114.055 45.976C114.396 45.7307 114.567 45.3947 114.567 44.968C114.567 44.6373 114.455 44.376 114.231 44.184C114.007 43.992 113.655 43.8373 113.175 43.72L111.783 43.4C110.471 43.1013 109.815 42.424 109.815 41.368C109.815 40.6853 110.081 40.136 110.615 39.72C111.148 39.304 111.852 39.096 112.727 39.096C113.185 39.096 113.628 39.1653 114.055 39.304C114.492 39.4427 114.871 39.656 115.191 39.944C115.329 40.0507 115.388 40.1787 115.367 40.328C115.345 40.4773 115.271 40.5893 115.143 40.664C115.025 40.7387 114.887 40.7173 114.727 40.6C114.417 40.3653 114.092 40.1947 113.751 40.088C113.409 39.9707 113.063 39.912 112.711 39.912C112.092 39.912 111.612 40.04 111.271 40.296C110.94 40.552 110.775 40.8987 110.775 41.336C110.775 41.6667 110.876 41.9333 111.079 42.136C111.281 42.3387 111.612 42.4933 112.071 42.6L113.463 42.92C114.156 43.08 114.673 43.32 115.015 43.64C115.356 43.9493 115.527 44.3707 115.527 44.904C115.527 45.5973 115.255 46.1413 114.711 46.536C114.167 46.9307 113.441 47.128 112.535 47.128ZM120.497 47.128C119.633 47.128 118.982 46.8933 118.545 46.424C118.118 45.9547 117.905 45.2827 117.905 44.408V40.024H116.721C116.412 40.024 116.257 39.8907 116.257 39.624C116.257 39.368 116.412 39.24 116.721 39.24H117.905V37.24C117.905 36.9093 118.07 36.744 118.401 36.744C118.721 36.744 118.881 36.9093 118.881 37.24V39.24H121.041C121.34 39.24 121.489 39.368 121.489 39.624C121.489 39.8907 121.34 40.024 121.041 40.024H118.881V44.28C118.881 44.9307 119.014 45.4267 119.281 45.768C119.548 46.1093 119.99 46.28 120.609 46.28C120.822 46.28 120.998 46.2587 121.137 46.216C121.276 46.1627 121.398 46.136 121.505 46.136C121.697 46.136 121.793 46.2693 121.793 46.536C121.793 46.6213 121.772 46.7067 121.729 46.792C121.697 46.8667 121.633 46.92 121.537 46.952C121.42 46.9947 121.26 47.032 121.057 47.064C120.854 47.1067 120.668 47.128 120.497 47.128ZM126.226 47.128C125.032 47.128 124.088 46.776 123.394 46.072C122.712 45.3573 122.37 44.3813 122.37 43.144C122.37 42.344 122.525 41.64 122.834 41.032C123.144 40.424 123.57 39.9493 124.114 39.608C124.669 39.2667 125.304 39.096 126.018 39.096C127.053 39.096 127.858 39.432 128.434 40.104C129.01 40.776 129.298 41.6987 129.298 42.872C129.298 43.1707 129.149 43.32 128.85 43.32H123.33C123.362 44.28 123.624 45.0213 124.114 45.544C124.616 46.056 125.309 46.312 126.194 46.312C126.589 46.312 126.968 46.264 127.33 46.168C127.704 46.0613 128.066 45.8747 128.418 45.608C128.61 45.48 128.776 45.4533 128.914 45.528C129.053 45.592 129.128 45.704 129.138 45.864C129.16 46.0133 129.08 46.152 128.898 46.28C128.557 46.5573 128.141 46.7707 127.65 46.92C127.17 47.0587 126.696 47.128 126.226 47.128ZM126.034 39.88C125.224 39.88 124.589 40.136 124.13 40.648C123.682 41.1493 123.421 41.8 123.346 42.6H128.418C128.397 41.7467 128.184 41.08 127.778 40.6C127.373 40.12 126.792 39.88 126.034 39.88ZM136.055 47C135.692 47 135.511 46.8133 135.511 46.44V36.28C135.511 35.9067 135.692 35.72 136.055 35.72H139.143C140.935 35.72 142.316 36.2 143.287 37.16C144.268 38.12 144.759 39.5173 144.759 41.352C144.759 43.1867 144.268 44.5893 143.287 45.56C142.316 46.52 140.935 47 139.143 47H136.055ZM136.487 46.136H139.063C142.156 46.136 143.703 44.5413 143.703 41.352C143.703 38.1733 142.156 36.584 139.063 36.584H136.487V46.136ZM147.709 47.096C147.4 47.096 147.245 46.9307 147.245 46.6V36.136C147.245 35.7947 147.384 35.624 147.661 35.624C147.789 35.624 147.885 35.6453 147.949 35.688C148.024 35.7307 148.099 35.8107 148.173 35.928L155.165 45.336V36.104C155.165 35.784 155.32 35.624 155.629 35.624C155.928 35.624 156.077 35.784 156.077 36.104V46.6C156.077 46.9307 155.944 47.096 155.677 47.096C155.475 47.096 155.299 46.9947 155.149 46.792L148.157 37.368V46.6C148.157 46.9307 148.008 47.096 147.709 47.096ZM159.507 47.096C159.187 47.096 159.027 46.9253 159.027 46.584V36.136C159.027 35.7947 159.187 35.624 159.507 35.624C159.837 35.624 160.003 35.7947 160.003 36.136V46.584C160.003 46.9253 159.837 47.096 159.507 47.096ZM167.284 47.096C166.953 47.096 166.788 46.9307 166.788 46.6V39.64C166.788 39.2987 166.953 39.128 167.284 39.128C167.593 39.128 167.748 39.2987 167.748 39.64V40.632C168.004 40.12 168.372 39.736 168.852 39.48C169.332 39.224 169.865 39.096 170.452 39.096C172.297 39.096 173.22 40.0987 173.22 42.104V46.6C173.22 46.9307 173.06 47.096 172.74 47.096C172.409 47.096 172.244 46.9307 172.244 46.6V42.184C172.244 41.416 172.089 40.8507 171.78 40.488C171.47 40.1253 170.98 39.944 170.308 39.944C169.54 39.944 168.921 40.184 168.452 40.664C167.993 41.1333 167.764 41.768 167.764 42.568V46.6C167.764 46.9307 167.604 47.096 167.284 47.096ZM178.829 47.128C178.104 47.128 177.474 46.968 176.941 46.648C176.408 46.3173 175.992 45.8533 175.693 45.256C175.405 44.648 175.261 43.9333 175.261 43.112C175.261 42.3013 175.405 41.5973 175.693 41C175.992 40.392 176.408 39.9227 176.941 39.592C177.474 39.2613 178.104 39.096 178.829 39.096C179.565 39.096 180.2 39.2613 180.733 39.592C181.266 39.9227 181.677 40.392 181.965 41C182.264 41.5973 182.413 42.3013 182.413 43.112C182.413 43.9333 182.264 44.648 181.965 45.256C181.677 45.8533 181.266 46.3173 180.733 46.648C180.2 46.968 179.565 47.128 178.829 47.128ZM178.829 46.312C179.618 46.312 180.248 46.0347 180.717 45.48C181.186 44.9147 181.421 44.1253 181.421 43.112C181.421 42.0987 181.186 41.3147 180.717 40.76C180.248 40.2053 179.618 39.928 178.829 39.928C178.04 39.928 177.41 40.2053 176.941 40.76C176.482 41.3147 176.253 42.0987 176.253 43.112C176.253 44.1253 176.482 44.9147 176.941 45.48C177.41 46.0347 178.04 46.312 178.829 46.312ZM191.898 47.128C190.704 47.128 189.76 46.776 189.066 46.072C188.384 45.3573 188.042 44.3813 188.042 43.144C188.042 42.344 188.197 41.64 188.506 41.032C188.816 40.424 189.242 39.9493 189.786 39.608C190.341 39.2667 190.976 39.096 191.69 39.096C192.725 39.096 193.53 39.432 194.106 40.104C194.682 40.776 194.97 41.6987 194.97 42.872C194.97 43.1707 194.821 43.32 194.522 43.32H189.002C189.034 44.28 189.296 45.0213 189.786 45.544C190.288 46.056 190.981 46.312 191.866 46.312C192.261 46.312 192.64 46.264 193.002 46.168C193.376 46.0613 193.738 45.8747 194.09 45.608C194.282 45.48 194.448 45.4533 194.586 45.528C194.725 45.592 194.8 45.704 194.81 45.864C194.832 46.0133 194.752 46.152 194.57 46.28C194.229 46.5573 193.813 46.7707 193.322 46.92C192.842 47.0587 192.368 47.128 191.898 47.128ZM191.706 39.88C190.896 39.88 190.261 40.136 189.802 40.648C189.354 41.1493 189.093 41.8 189.018 42.6H194.09C194.069 41.7467 193.856 41.08 193.45 40.6C193.045 40.12 192.464 39.88 191.706 39.88ZM199.488 47.128C199.008 47.128 198.528 47.064 198.048 46.936C197.578 46.808 197.13 46.5893 196.704 46.28C196.565 46.1947 196.501 46.0773 196.512 45.928C196.522 45.768 196.581 45.6453 196.688 45.56C196.805 45.4747 196.949 45.4853 197.12 45.592C197.536 45.8693 197.941 46.0613 198.336 46.168C198.73 46.2747 199.125 46.328 199.52 46.328C200.181 46.328 200.677 46.2107 201.008 45.976C201.349 45.7307 201.52 45.3947 201.52 44.968C201.52 44.6373 201.408 44.376 201.184 44.184C200.96 43.992 200.608 43.8373 200.128 43.72L198.736 43.4C197.424 43.1013 196.768 42.424 196.768 41.368C196.768 40.6853 197.034 40.136 197.568 39.72C198.101 39.304 198.805 39.096 199.68 39.096C200.138 39.096 200.581 39.1653 201.008 39.304C201.445 39.4427 201.824 39.656 202.144 39.944C202.282 40.0507 202.341 40.1787 202.32 40.328C202.298 40.4773 202.224 40.5893 202.096 40.664C201.978 40.7387 201.84 40.7173 201.68 40.6C201.37 40.3653 201.045 40.1947 200.704 40.088C200.362 39.9707 200.016 39.912 199.664 39.912C199.045 39.912 198.565 40.04 198.224 40.296C197.893 40.552 197.728 40.8987 197.728 41.336C197.728 41.6667 197.829 41.9333 198.032 42.136C198.234 42.3387 198.565 42.4933 199.024 42.6L200.416 42.92C201.109 43.08 201.626 43.32 201.968 43.64C202.309 43.9493 202.48 44.3707 202.48 44.904C202.48 45.5973 202.208 46.1413 201.664 46.536C201.12 46.9307 200.394 47.128 199.488 47.128ZM207.45 47.128C206.586 47.128 205.936 46.8933 205.498 46.424C205.072 45.9547 204.858 45.2827 204.858 44.408V40.024H203.674C203.365 40.024 203.21 39.8907 203.21 39.624C203.21 39.368 203.365 39.24 203.674 39.24H204.858V37.24C204.858 36.9093 205.024 36.744 205.354 36.744C205.674 36.744 205.834 36.9093 205.834 37.24V39.24H207.994C208.293 39.24 208.442 39.368 208.442 39.624C208.442 39.8907 208.293 40.024 207.994 40.024H205.834V44.28C205.834 44.9307 205.968 45.4267 206.234 45.768C206.501 46.1093 206.944 46.28 207.562 46.28C207.776 46.28 207.952 46.2587 208.09 46.216C208.229 46.1627 208.352 46.136 208.458 46.136C208.65 46.136 208.746 46.2693 208.746 46.536C208.746 46.6213 208.725 46.7067 208.682 46.792C208.65 46.8667 208.586 46.92 208.49 46.952C208.373 46.9947 208.213 47.032 208.01 47.064C207.808 47.1067 207.621 47.128 207.45 47.128ZM212.282 47.128C211.759 47.128 211.29 47.0267 210.874 46.824C210.468 46.6213 210.143 46.344 209.898 45.992C209.663 45.64 209.546 45.2453 209.546 44.808C209.546 44.232 209.69 43.784 209.978 43.464C210.266 43.1333 210.751 42.8987 211.434 42.76C212.116 42.6213 213.055 42.552 214.25 42.552H214.746V41.976C214.746 41.2613 214.602 40.744 214.314 40.424C214.026 40.0933 213.567 39.928 212.938 39.928C212.532 39.928 212.138 39.9813 211.754 40.088C211.37 40.1947 210.97 40.3653 210.554 40.6C210.362 40.7067 210.207 40.712 210.09 40.616C209.983 40.5093 209.93 40.376 209.93 40.216C209.94 40.0453 210.031 39.9173 210.202 39.832C210.639 39.5867 211.092 39.4053 211.562 39.288C212.031 39.16 212.484 39.096 212.922 39.096C213.86 39.096 214.554 39.336 215.002 39.816C215.46 40.296 215.69 41.032 215.69 42.024V46.6C215.69 46.9307 215.54 47.096 215.242 47.096C214.922 47.096 214.762 46.9307 214.762 46.6V45.608C214.548 46.088 214.223 46.4613 213.786 46.728C213.359 46.9947 212.858 47.128 212.282 47.128ZM212.41 46.344C212.868 46.344 213.268 46.2373 213.61 46.024C213.962 45.8 214.239 45.496 214.442 45.112C214.644 44.728 214.746 44.2907 214.746 43.8V43.272H214.266C213.306 43.272 212.554 43.3147 212.01 43.4C211.476 43.4853 211.103 43.6347 210.89 43.848C210.676 44.0613 210.57 44.3547 210.57 44.728C210.57 45.208 210.735 45.5973 211.066 45.896C211.396 46.1947 211.844 46.344 212.41 46.344ZM213.306 38.136C213.231 38.2533 213.13 38.312 213.002 38.312C212.884 38.3013 212.788 38.248 212.714 38.152C212.65 38.056 212.65 37.9387 212.714 37.8L214.122 35.096C214.196 34.9467 214.298 34.856 214.426 34.824C214.554 34.792 214.671 34.808 214.778 34.872C214.895 34.936 214.975 35.0267 215.018 35.144C215.06 35.2613 215.039 35.384 214.954 35.512L213.306 38.136ZM222.768 47.096C222.438 47.096 222.272 46.9307 222.272 46.6V39.64C222.272 39.2987 222.438 39.128 222.768 39.128C223.078 39.128 223.232 39.2987 223.232 39.64V40.648C223.467 40.1467 223.814 39.7627 224.272 39.496C224.742 39.2293 225.28 39.0907 225.888 39.08C226.016 39.0693 226.123 39.096 226.208 39.16C226.294 39.224 226.336 39.3253 226.336 39.464C226.347 39.7627 226.192 39.928 225.872 39.96L225.648 39.976C224.891 40.04 224.304 40.2907 223.888 40.728C223.472 41.1547 223.264 41.7307 223.264 42.456V46.6C223.264 46.9307 223.099 47.096 222.768 47.096ZM231.023 47.128C229.829 47.128 228.885 46.776 228.191 46.072C227.509 45.3573 227.167 44.3813 227.167 43.144C227.167 42.344 227.322 41.64 227.631 41.032C227.941 40.424 228.367 39.9493 228.911 39.608C229.466 39.2667 230.101 39.096 230.815 39.096C231.85 39.096 232.655 39.432 233.231 40.104C233.807 40.776 234.095 41.6987 234.095 42.872C234.095 43.1707 233.946 43.32 233.647 43.32H228.127C228.159 44.28 228.421 45.0213 228.911 45.544C229.413 46.056 230.106 46.312 230.991 46.312C231.386 46.312 231.765 46.264 232.127 46.168C232.501 46.0613 232.863 45.8747 233.215 45.608C233.407 45.48 233.573 45.4533 233.711 45.528C233.85 45.592 233.925 45.704 233.935 45.864C233.957 46.0133 233.877 46.152 233.695 46.28C233.354 46.5573 232.938 46.7707 232.447 46.92C231.967 47.0587 231.493 47.128 231.023 47.128ZM230.831 39.88C230.021 39.88 229.386 40.136 228.927 40.648C228.479 41.1493 228.218 41.8 228.143 42.6H233.215C233.194 41.7467 232.981 41.08 232.575 40.6C232.17 40.12 231.589 39.88 230.831 39.88ZM239.461 50.008C238.885 50.008 238.325 49.9333 237.781 49.784C237.247 49.6453 236.762 49.416 236.325 49.096C236.175 49 236.111 48.8773 236.133 48.728C236.154 48.5787 236.223 48.456 236.341 48.36C236.458 48.2747 236.586 48.2747 236.725 48.36C237.205 48.68 237.653 48.8987 238.069 49.016C238.495 49.1333 238.949 49.192 239.429 49.192C240.207 49.192 240.799 48.9787 241.205 48.552C241.61 48.1253 241.813 47.5067 241.813 46.696V45.192C241.589 45.704 241.231 46.104 240.741 46.392C240.261 46.68 239.711 46.824 239.093 46.824C238.367 46.824 237.743 46.664 237.221 46.344C236.709 46.0133 236.309 45.56 236.021 44.984C235.743 44.3973 235.605 43.72 235.605 42.952C235.605 42.184 235.743 41.512 236.021 40.936C236.309 40.36 236.709 39.912 237.221 39.592C237.743 39.2613 238.367 39.096 239.093 39.096C239.711 39.096 240.255 39.24 240.725 39.528C241.205 39.8053 241.562 40.1947 241.797 40.696V39.64C241.797 39.2987 241.957 39.128 242.277 39.128C242.597 39.128 242.757 39.2987 242.757 39.64V46.552C242.757 48.856 241.658 50.008 239.461 50.008ZM239.205 45.992C240.005 45.992 240.639 45.72 241.109 45.176C241.578 44.6213 241.813 43.88 241.813 42.952C241.813 42.024 241.578 41.288 241.109 40.744C240.639 40.2 240.005 39.928 239.205 39.928C238.394 39.928 237.754 40.2 237.285 40.744C236.826 41.288 236.597 42.024 236.597 42.952C236.597 43.88 236.826 44.6213 237.285 45.176C237.754 45.72 238.394 45.992 239.205 45.992ZM245.831 37.24C245.361 37.24 245.127 37.016 245.127 36.568C245.127 36.1307 245.361 35.912 245.831 35.912C246.3 35.912 246.535 36.1307 246.535 36.568C246.535 37.016 246.3 37.24 245.831 37.24ZM245.831 47.064C245.5 47.064 245.335 46.888 245.335 46.536V39.688C245.335 39.3467 245.5 39.176 245.831 39.176C246.151 39.176 246.311 39.3467 246.311 39.688V46.536C246.311 46.888 246.151 47.064 245.831 47.064ZM251.41 47.128C250.93 47.128 250.45 47.064 249.97 46.936C249.5 46.808 249.052 46.5893 248.626 46.28C248.487 46.1947 248.423 46.0773 248.434 45.928C248.444 45.768 248.503 45.6453 248.61 45.56C248.727 45.4747 248.871 45.4853 249.042 45.592C249.458 45.8693 249.863 46.0613 250.258 46.168C250.652 46.2747 251.047 46.328 251.442 46.328C252.103 46.328 252.599 46.2107 252.93 45.976C253.271 45.7307 253.442 45.3947 253.442 44.968C253.442 44.6373 253.33 44.376 253.106 44.184C252.882 43.992 252.53 43.8373 252.05 43.72L250.658 43.4C249.346 43.1013 248.69 42.424 248.69 41.368C248.69 40.6853 248.956 40.136 249.49 39.72C250.023 39.304 250.727 39.096 251.602 39.096C252.06 39.096 252.503 39.1653 252.93 39.304C253.367 39.4427 253.746 39.656 254.066 39.944C254.204 40.0507 254.263 40.1787 254.242 40.328C254.22 40.4773 254.146 40.5893 254.018 40.664C253.9 40.7387 253.762 40.7173 253.602 40.6C253.292 40.3653 252.967 40.1947 252.626 40.088C252.284 39.9707 251.938 39.912 251.586 39.912C250.967 39.912 250.487 40.04 250.146 40.296C249.815 40.552 249.65 40.8987 249.65 41.336C249.65 41.6667 249.751 41.9333 249.954 42.136C250.156 42.3387 250.487 42.4933 250.946 42.6L252.338 42.92C253.031 43.08 253.548 43.32 253.89 43.64C254.231 43.9493 254.402 44.3707 254.402 44.904C254.402 45.5973 254.13 46.1413 253.586 46.536C253.042 46.9307 252.316 47.128 251.41 47.128ZM259.372 47.128C258.508 47.128 257.857 46.8933 257.42 46.424C256.993 45.9547 256.78 45.2827 256.78 44.408V40.024H255.596C255.287 40.024 255.132 39.8907 255.132 39.624C255.132 39.368 255.287 39.24 255.596 39.24H256.78V37.24C256.78 36.9093 256.945 36.744 257.276 36.744C257.596 36.744 257.756 36.9093 257.756 37.24V39.24H259.916C260.215 39.24 260.364 39.368 260.364 39.624C260.364 39.8907 260.215 40.024 259.916 40.024H257.756V44.28C257.756 44.9307 257.889 45.4267 258.156 45.768C258.423 46.1093 258.865 46.28 259.484 46.28C259.697 46.28 259.873 46.2587 260.012 46.216C260.151 46.1627 260.273 46.136 260.38 46.136C260.572 46.136 260.668 46.2693 260.668 46.536C260.668 46.6213 260.647 46.7067 260.604 46.792C260.572 46.8667 260.508 46.92 260.412 46.952C260.295 46.9947 260.135 47.032 259.932 47.064C259.729 47.1067 259.543 47.128 259.372 47.128ZM262.299 47.096C261.969 47.096 261.803 46.9307 261.803 46.6V39.64C261.803 39.2987 261.969 39.128 262.299 39.128C262.609 39.128 262.763 39.2987 262.763 39.64V40.648C262.998 40.1467 263.345 39.7627 263.803 39.496C264.273 39.2293 264.811 39.0907 265.419 39.08C265.547 39.0693 265.654 39.096 265.739 39.16C265.825 39.224 265.867 39.3253 265.867 39.464C265.878 39.7627 265.723 39.928 265.403 39.96L265.179 39.976C264.422 40.04 263.835 40.2907 263.419 40.728C263.003 41.1547 262.795 41.7307 262.795 42.456V46.6C262.795 46.9307 262.63 47.096 262.299 47.096ZM269.594 47.128C269.071 47.128 268.602 47.0267 268.186 46.824C267.781 46.6213 267.455 46.344 267.21 45.992C266.975 45.64 266.858 45.2453 266.858 44.808C266.858 44.232 267.002 43.784 267.29 43.464C267.578 43.1333 268.063 42.8987 268.746 42.76C269.429 42.6213 270.367 42.552 271.562 42.552H272.058V41.976C272.058 41.2613 271.914 40.744 271.626 40.424C271.338 40.0933 270.879 39.928 270.25 39.928C269.845 39.928 269.45 39.9813 269.066 40.088C268.682 40.1947 268.282 40.3653 267.866 40.6C267.674 40.7067 267.519 40.712 267.402 40.616C267.295 40.5093 267.242 40.376 267.242 40.216C267.253 40.0453 267.343 39.9173 267.514 39.832C267.951 39.5867 268.405 39.4053 268.874 39.288C269.343 39.16 269.797 39.096 270.234 39.096C271.173 39.096 271.866 39.336 272.314 39.816C272.773 40.296 273.002 41.032 273.002 42.024V46.6C273.002 46.9307 272.853 47.096 272.554 47.096C272.234 47.096 272.074 46.9307 272.074 46.6V45.608C271.861 46.088 271.535 46.4613 271.098 46.728C270.671 46.9947 270.17 47.128 269.594 47.128ZM269.722 46.344C270.181 46.344 270.581 46.2373 270.922 46.024C271.274 45.8 271.551 45.496 271.754 45.112C271.957 44.728 272.058 44.2907 272.058 43.8V43.272H271.578C270.618 43.272 269.866 43.3147 269.322 43.4C268.789 43.4853 268.415 43.6347 268.202 43.848C267.989 44.0613 267.882 44.3547 267.882 44.728C267.882 45.208 268.047 45.5973 268.378 45.896C268.709 46.1947 269.157 46.344 269.722 46.344ZM278.513 47.128C277.809 47.128 277.201 46.968 276.689 46.648C276.177 46.3173 275.777 45.8533 275.489 45.256C275.212 44.648 275.073 43.9333 275.073 43.112C275.073 41.8853 275.383 40.9093 276.001 40.184C276.62 39.4587 277.457 39.096 278.513 39.096C279.132 39.096 279.676 39.24 280.145 39.528C280.625 39.8053 280.983 40.1893 281.217 40.68V36.12C281.217 35.7893 281.377 35.624 281.697 35.624C282.028 35.624 282.193 35.7893 282.193 36.12V46.6C282.193 46.9307 282.033 47.096 281.713 47.096C281.383 47.096 281.217 46.9307 281.217 46.6V45.544C280.983 46.0347 280.625 46.424 280.145 46.712C279.676 46.9893 279.132 47.128 278.513 47.128ZM278.641 46.312C279.431 46.312 280.06 46.0347 280.529 45.48C280.999 44.9147 281.233 44.1253 281.233 43.112C281.233 42.0987 280.999 41.3147 280.529 40.76C280.06 40.2053 279.431 39.928 278.641 39.928C277.852 39.928 277.223 40.2053 276.753 40.76C276.295 41.3147 276.065 42.0987 276.065 43.112C276.065 44.1253 276.295 44.9147 276.753 45.48C277.223 46.0347 277.852 46.312 278.641 46.312ZM287.845 47.128C287.119 47.128 286.49 46.968 285.957 46.648C285.423 46.3173 285.007 45.8533 284.709 45.256C284.421 44.648 284.277 43.9333 284.277 43.112C284.277 42.3013 284.421 41.5973 284.709 41C285.007 40.392 285.423 39.9227 285.957 39.592C286.49 39.2613 287.119 39.096 287.845 39.096C288.581 39.096 289.215 39.2613 289.749 39.592C290.282 39.9227 290.693 40.392 290.981 41C291.279 41.5973 291.429 42.3013 291.429 43.112C291.429 43.9333 291.279 44.648 290.981 45.256C290.693 45.8533 290.282 46.3173 289.749 46.648C289.215 46.968 288.581 47.128 287.845 47.128ZM287.845 46.312C288.634 46.312 289.263 46.0347 289.733 45.48C290.202 44.9147 290.437 44.1253 290.437 43.112C290.437 42.0987 290.202 41.3147 289.733 40.76C289.263 40.2053 288.634 39.928 287.845 39.928C287.055 39.928 286.426 40.2053 285.957 40.76C285.498 41.3147 285.269 42.0987 285.269 43.112C285.269 44.1253 285.498 44.9147 285.957 45.48C286.426 46.0347 287.055 46.312 287.845 46.312ZM293.612 47.048C293.398 47.048 293.222 46.9787 293.084 46.84C292.945 46.7013 292.876 46.5253 292.876 46.312C292.876 46.0987 292.945 45.9227 293.084 45.784C293.222 45.6453 293.398 45.576 293.612 45.576C293.836 45.576 294.012 45.6453 294.14 45.784C294.278 45.9227 294.348 46.0987 294.348 46.312C294.348 46.5253 294.278 46.7013 294.14 46.84C294.012 46.9787 293.836 47.048 293.612 47.048ZM120.649 66.084C120.369 66.084 120.229 65.9347 120.229 65.636V56.578C120.229 56.2793 120.374 56.13 120.663 56.13H123.953C125.008 56.13 125.811 56.382 126.361 56.886C126.921 57.39 127.201 58.1087 127.201 59.042C127.201 59.966 126.921 60.6847 126.361 61.198C125.811 61.702 125.008 61.954 123.953 61.954H121.083V65.636C121.083 65.9347 120.939 66.084 120.649 66.084ZM121.083 61.198H123.883C125.517 61.198 126.333 60.4793 126.333 59.042C126.333 57.5953 125.517 56.872 123.883 56.872H121.083V61.198ZM131.199 66.112C130.564 66.112 130.014 65.972 129.547 65.692C129.08 65.4027 128.716 64.9967 128.455 64.474C128.203 63.942 128.077 63.3167 128.077 62.598C128.077 61.8887 128.203 61.2727 128.455 60.75C128.716 60.218 129.08 59.8073 129.547 59.518C130.014 59.2287 130.564 59.084 131.199 59.084C131.843 59.084 132.398 59.2287 132.865 59.518C133.332 59.8073 133.691 60.218 133.943 60.75C134.204 61.2727 134.335 61.8887 134.335 62.598C134.335 63.3167 134.204 63.942 133.943 64.474C133.691 64.9967 133.332 65.4027 132.865 65.692C132.398 65.972 131.843 66.112 131.199 66.112ZM131.199 65.398C131.89 65.398 132.44 65.1553 132.851 64.67C133.262 64.1753 133.467 63.4847 133.467 62.598C133.467 61.7113 133.262 61.0253 132.851 60.54C132.44 60.0547 131.89 59.812 131.199 59.812C130.508 59.812 129.958 60.0547 129.547 60.54C129.146 61.0253 128.945 61.7113 128.945 62.598C128.945 63.4847 129.146 64.1753 129.547 64.67C129.958 65.1553 130.508 65.398 131.199 65.398ZM136.587 66.084C136.298 66.084 136.153 65.9393 136.153 65.65V59.56C136.153 59.2613 136.298 59.112 136.587 59.112C136.858 59.112 136.993 59.2613 136.993 59.56V60.442C137.199 60.0033 137.502 59.6673 137.903 59.434C138.314 59.2007 138.785 59.0793 139.317 59.07C139.429 59.0607 139.523 59.084 139.597 59.14C139.672 59.196 139.709 59.2847 139.709 59.406C139.719 59.6673 139.583 59.812 139.303 59.84L139.107 59.854C138.445 59.91 137.931 60.1293 137.567 60.512C137.203 60.8853 137.021 61.3893 137.021 62.024V65.65C137.021 65.9393 136.877 66.084 136.587 66.084ZM145.222 66.084C144.932 66.084 144.788 65.9393 144.788 65.65V59.896H143.794C143.532 59.896 143.402 59.7793 143.402 59.546C143.402 59.322 143.532 59.21 143.794 59.21H144.788V58.874C144.788 57.166 145.604 56.242 147.238 56.102L147.616 56.074C147.793 56.0647 147.905 56.116 147.952 56.228C148.008 56.3307 148.012 56.4427 147.966 56.564C147.919 56.6853 147.83 56.7507 147.7 56.76L147.308 56.802C146.729 56.8487 146.304 57.04 146.034 57.376C145.772 57.7027 145.642 58.1787 145.642 58.804V59.21H147.308C147.569 59.21 147.7 59.322 147.7 59.546C147.7 59.7793 147.569 59.896 147.308 59.896H145.642V65.65C145.642 65.9393 145.502 66.084 145.222 66.084ZM150.968 66.112C150.511 66.112 150.1 66.0233 149.736 65.846C149.381 65.6687 149.097 65.426 148.882 65.118C148.677 64.81 148.574 64.4647 148.574 64.082C148.574 63.578 148.7 63.186 148.952 62.906C149.204 62.6167 149.629 62.4113 150.226 62.29C150.823 62.1687 151.645 62.108 152.69 62.108H153.124V61.604C153.124 60.9787 152.998 60.526 152.746 60.246C152.494 59.9567 152.093 59.812 151.542 59.812C151.187 59.812 150.842 59.8587 150.506 59.952C150.17 60.0453 149.82 60.1947 149.456 60.4C149.288 60.4933 149.153 60.498 149.05 60.414C148.957 60.3207 148.91 60.204 148.91 60.064C148.919 59.9147 148.999 59.8027 149.148 59.728C149.531 59.5133 149.927 59.3547 150.338 59.252C150.749 59.14 151.145 59.084 151.528 59.084C152.349 59.084 152.956 59.294 153.348 59.714C153.749 60.134 153.95 60.778 153.95 61.646V65.65C153.95 65.9393 153.819 66.084 153.558 66.084C153.278 66.084 153.138 65.9393 153.138 65.65V64.782C152.951 65.202 152.667 65.5287 152.284 65.762C151.911 65.9953 151.472 66.112 150.968 66.112ZM151.08 65.426C151.481 65.426 151.831 65.3327 152.13 65.146C152.438 64.95 152.681 64.684 152.858 64.348C153.035 64.012 153.124 63.6293 153.124 63.2V62.738H152.704C151.864 62.738 151.206 62.7753 150.73 62.85C150.263 62.9247 149.937 63.0553 149.75 63.242C149.563 63.4287 149.47 63.6853 149.47 64.012C149.47 64.432 149.615 64.7727 149.904 65.034C150.193 65.2953 150.585 65.426 151.08 65.426ZM158.564 66.084C158.293 66.084 158.093 65.9347 157.962 65.636L155.442 59.756C155.367 59.588 155.363 59.4387 155.428 59.308C155.493 59.1773 155.624 59.112 155.82 59.112C156.016 59.112 156.161 59.2287 156.254 59.462L158.564 65.062L160.902 59.462C160.949 59.3407 161.005 59.252 161.07 59.196C161.135 59.14 161.229 59.112 161.35 59.112C161.527 59.112 161.639 59.1773 161.686 59.308C161.742 59.4387 161.737 59.5833 161.672 59.742L159.152 65.636C159.031 65.9347 158.835 66.084 158.564 66.084ZM165.857 66.112C165.222 66.112 164.672 65.972 164.205 65.692C163.738 65.4027 163.374 64.9967 163.113 64.474C162.861 63.942 162.735 63.3167 162.735 62.598C162.735 61.8887 162.861 61.2727 163.113 60.75C163.374 60.218 163.738 59.8073 164.205 59.518C164.672 59.2287 165.222 59.084 165.857 59.084C166.501 59.084 167.056 59.2287 167.523 59.518C167.99 59.8073 168.349 60.218 168.601 60.75C168.862 61.2727 168.993 61.8887 168.993 62.598C168.993 63.3167 168.862 63.942 168.601 64.474C168.349 64.9967 167.99 65.4027 167.523 65.692C167.056 65.972 166.501 66.112 165.857 66.112ZM165.857 65.398C166.548 65.398 167.098 65.1553 167.509 64.67C167.92 64.1753 168.125 63.4847 168.125 62.598C168.125 61.7113 167.92 61.0253 167.509 60.54C167.098 60.0547 166.548 59.812 165.857 59.812C165.166 59.812 164.616 60.0547 164.205 60.54C163.804 61.0253 163.603 61.7113 163.603 62.598C163.603 63.4847 163.804 64.1753 164.205 64.67C164.616 65.1553 165.166 65.398 165.857 65.398ZM171.245 66.084C170.956 66.084 170.811 65.9393 170.811 65.65V59.56C170.811 59.2613 170.956 59.112 171.245 59.112C171.516 59.112 171.651 59.2613 171.651 59.56V60.442C171.857 60.0033 172.16 59.6673 172.561 59.434C172.972 59.2007 173.443 59.0793 173.975 59.07C174.087 59.0607 174.181 59.084 174.255 59.14C174.33 59.196 174.367 59.2847 174.367 59.406C174.377 59.6673 174.241 59.812 173.961 59.84L173.765 59.854C173.103 59.91 172.589 60.1293 172.225 60.512C171.861 60.8853 171.679 61.3893 171.679 62.024V65.65C171.679 65.9393 171.535 66.084 171.245 66.084ZM179.558 57.46C179.147 57.46 178.942 57.264 178.942 56.872C178.942 56.4893 179.147 56.298 179.558 56.298C179.969 56.298 180.174 56.4893 180.174 56.872C180.174 57.264 179.969 57.46 179.558 57.46ZM179.558 66.056C179.269 66.056 179.124 65.902 179.124 65.594V59.602C179.124 59.3033 179.269 59.154 179.558 59.154C179.838 59.154 179.978 59.3033 179.978 59.602V65.594C179.978 65.902 179.838 66.056 179.558 66.056ZM182.661 66.084C182.372 66.084 182.227 65.9393 182.227 65.65V59.56C182.227 59.2613 182.372 59.112 182.661 59.112C182.932 59.112 183.067 59.2613 183.067 59.56V60.428C183.291 59.98 183.613 59.644 184.033 59.42C184.453 59.196 184.92 59.084 185.433 59.084C187.048 59.084 187.855 59.9613 187.855 61.716V65.65C187.855 65.9393 187.715 66.084 187.435 66.084C187.146 66.084 187.001 65.9393 187.001 65.65V61.786C187.001 61.114 186.866 60.6193 186.595 60.302C186.325 59.9847 185.895 59.826 185.307 59.826C184.635 59.826 184.094 60.036 183.683 60.456C183.282 60.8667 183.081 61.422 183.081 62.122V65.65C183.081 65.9393 182.941 66.084 182.661 66.084ZM192.623 66.112C191.867 66.112 191.298 65.9067 190.915 65.496C190.542 65.0853 190.355 64.4973 190.355 63.732V59.896H189.319C189.049 59.896 188.913 59.7793 188.913 59.546C188.913 59.322 189.049 59.21 189.319 59.21H190.355V57.46C190.355 57.1707 190.5 57.026 190.789 57.026C191.069 57.026 191.209 57.1707 191.209 57.46V59.21H193.099C193.361 59.21 193.491 59.322 193.491 59.546C193.491 59.7793 193.361 59.896 193.099 59.896H191.209V63.62C191.209 64.1893 191.326 64.6233 191.559 64.922C191.793 65.2207 192.18 65.37 192.721 65.37C192.908 65.37 193.062 65.3513 193.183 65.314C193.305 65.2673 193.412 65.244 193.505 65.244C193.673 65.244 193.757 65.3607 193.757 65.594C193.757 65.6687 193.739 65.7433 193.701 65.818C193.673 65.8833 193.617 65.93 193.533 65.958C193.431 65.9953 193.291 66.028 193.113 66.056C192.936 66.0933 192.773 66.112 192.623 66.112ZM197.637 66.112C196.591 66.112 195.765 65.804 195.159 65.188C194.561 64.5627 194.263 63.7087 194.263 62.626C194.263 61.926 194.398 61.31 194.669 60.778C194.939 60.246 195.313 59.8307 195.789 59.532C196.274 59.2333 196.829 59.084 197.455 59.084C198.36 59.084 199.065 59.378 199.569 59.966C200.073 60.554 200.325 61.3613 200.325 62.388C200.325 62.6493 200.194 62.78 199.933 62.78H195.103C195.131 63.62 195.359 64.2687 195.789 64.726C196.227 65.174 196.834 65.398 197.609 65.398C197.954 65.398 198.285 65.356 198.603 65.272C198.929 65.1787 199.247 65.0153 199.555 64.782C199.723 64.67 199.867 64.6467 199.989 64.712C200.11 64.768 200.175 64.866 200.185 65.006C200.203 65.1367 200.133 65.258 199.975 65.37C199.676 65.6127 199.312 65.7993 198.883 65.93C198.463 66.0513 198.047 66.112 197.637 66.112ZM197.469 59.77C196.759 59.77 196.204 59.994 195.803 60.442C195.411 60.8807 195.182 61.45 195.117 62.15H199.555C199.536 61.4033 199.349 60.82 198.995 60.4C198.64 59.98 198.131 59.77 197.469 59.77ZM202.499 66.084C202.21 66.084 202.065 65.9393 202.065 65.65V59.56C202.065 59.2613 202.21 59.112 202.499 59.112C202.77 59.112 202.905 59.2613 202.905 59.56V60.428C203.129 59.98 203.451 59.644 203.871 59.42C204.291 59.196 204.758 59.084 205.271 59.084C206.886 59.084 207.693 59.9613 207.693 61.716V65.65C207.693 65.9393 207.553 66.084 207.273 66.084C206.984 66.084 206.839 65.9393 206.839 65.65V61.786C206.839 61.114 206.704 60.6193 206.433 60.302C206.163 59.9847 205.733 59.826 205.145 59.826C204.473 59.826 203.932 60.036 203.521 60.456C203.12 60.8667 202.919 61.422 202.919 62.122V65.65C202.919 65.9393 202.779 66.084 202.499 66.084ZM212.461 66.112C211.705 66.112 211.136 65.9067 210.753 65.496C210.38 65.0853 210.193 64.4973 210.193 63.732V59.896H209.157C208.887 59.896 208.751 59.7793 208.751 59.546C208.751 59.322 208.887 59.21 209.157 59.21H210.193V57.46C210.193 57.1707 210.338 57.026 210.627 57.026C210.907 57.026 211.047 57.1707 211.047 57.46V59.21H212.937C213.199 59.21 213.329 59.322 213.329 59.546C213.329 59.7793 213.199 59.896 212.937 59.896H211.047V63.62C211.047 64.1893 211.164 64.6233 211.397 64.922C211.631 65.2207 212.018 65.37 212.559 65.37C212.746 65.37 212.9 65.3513 213.021 65.314C213.143 65.2673 213.25 65.244 213.343 65.244C213.511 65.244 213.595 65.3607 213.595 65.594C213.595 65.6687 213.577 65.7433 213.539 65.818C213.511 65.8833 213.455 65.93 213.371 65.958C213.269 65.9953 213.129 66.028 212.951 66.056C212.774 66.0933 212.611 66.112 212.461 66.112ZM216.689 66.112C216.231 66.112 215.821 66.0233 215.457 65.846C215.102 65.6687 214.817 65.426 214.603 65.118C214.397 64.81 214.295 64.4647 214.295 64.082C214.295 63.578 214.421 63.186 214.673 62.906C214.925 62.6167 215.349 62.4113 215.947 62.29C216.544 62.1687 217.365 62.108 218.411 62.108H218.845V61.604C218.845 60.9787 218.719 60.526 218.467 60.246C218.215 59.9567 217.813 59.812 217.263 59.812C216.908 59.812 216.563 59.8587 216.227 59.952C215.891 60.0453 215.541 60.1947 215.177 60.4C215.009 60.4933 214.873 60.498 214.771 60.414C214.677 60.3207 214.631 60.204 214.631 60.064C214.64 59.9147 214.719 59.8027 214.869 59.728C215.251 59.5133 215.648 59.3547 216.059 59.252C216.469 59.14 216.866 59.084 217.249 59.084C218.07 59.084 218.677 59.294 219.069 59.714C219.47 60.134 219.671 60.778 219.671 61.646V65.65C219.671 65.9393 219.54 66.084 219.279 66.084C218.999 66.084 218.859 65.9393 218.859 65.65V64.782C218.672 65.202 218.387 65.5287 218.005 65.762C217.631 65.9953 217.193 66.112 216.689 66.112ZM216.801 65.426C217.202 65.426 217.552 65.3327 217.851 65.146C218.159 64.95 218.401 64.684 218.579 64.348C218.756 64.012 218.845 63.6293 218.845 63.2V62.738H218.425C217.585 62.738 216.927 62.7753 216.451 62.85C215.984 62.9247 215.657 63.0553 215.471 63.242C215.284 63.4287 215.191 63.6853 215.191 64.012C215.191 64.432 215.335 64.7727 215.625 65.034C215.914 65.2953 216.306 65.426 216.801 65.426ZM228.133 66.112C227.498 66.112 226.947 65.972 226.481 65.692C226.014 65.4027 225.65 64.9967 225.389 64.474C225.137 63.942 225.011 63.3167 225.011 62.598C225.011 61.8887 225.137 61.2727 225.389 60.75C225.65 60.218 226.014 59.8073 226.481 59.518C226.947 59.2287 227.498 59.084 228.133 59.084C228.777 59.084 229.332 59.2287 229.799 59.518C230.265 59.8073 230.625 60.218 230.877 60.75C231.138 61.2727 231.269 61.8887 231.269 62.598C231.269 63.3167 231.138 63.942 230.877 64.474C230.625 64.9967 230.265 65.4027 229.799 65.692C229.332 65.972 228.777 66.112 228.133 66.112ZM228.133 65.398C228.823 65.398 229.374 65.1553 229.785 64.67C230.195 64.1753 230.401 63.4847 230.401 62.598C230.401 61.7113 230.195 61.0253 229.785 60.54C229.374 60.0547 228.823 59.812 228.133 59.812C227.442 59.812 226.891 60.0547 226.481 60.54C226.079 61.0253 225.879 61.7113 225.879 62.598C225.879 63.4847 226.079 64.1753 226.481 64.67C226.891 65.1553 227.442 65.398 228.133 65.398ZM235.58 66.112C234.824 66.112 234.255 65.9067 233.872 65.496C233.499 65.0853 233.312 64.4973 233.312 63.732V59.896H232.276C232.006 59.896 231.87 59.7793 231.87 59.546C231.87 59.322 232.006 59.21 232.276 59.21H233.312V57.46C233.312 57.1707 233.457 57.026 233.746 57.026C234.026 57.026 234.166 57.1707 234.166 57.46V59.21H236.056C236.318 59.21 236.448 59.322 236.448 59.546C236.448 59.7793 236.318 59.896 236.056 59.896H234.166V63.62C234.166 64.1893 234.283 64.6233 234.516 64.922C234.75 65.2207 235.137 65.37 235.678 65.37C235.865 65.37 236.019 65.3513 236.14 65.314C236.262 65.2673 236.369 65.244 236.462 65.244C236.63 65.244 236.714 65.3607 236.714 65.594C236.714 65.6687 236.696 65.7433 236.658 65.818C236.63 65.8833 236.574 65.93 236.49 65.958C236.388 65.9953 236.248 66.028 236.07 66.056C235.893 66.0933 235.73 66.112 235.58 66.112ZM238.142 66.084C237.853 66.084 237.708 65.9393 237.708 65.65V59.56C237.708 59.2613 237.853 59.112 238.142 59.112C238.413 59.112 238.548 59.2613 238.548 59.56V60.442C238.753 60.0033 239.057 59.6673 239.458 59.434C239.869 59.2007 240.34 59.0793 240.872 59.07C240.984 59.0607 241.077 59.084 241.152 59.14C241.227 59.196 241.264 59.2847 241.264 59.406C241.273 59.6673 241.138 59.812 240.858 59.84L240.662 59.854C239.999 59.91 239.486 60.1293 239.122 60.512C238.758 60.8853 238.576 61.3893 238.576 62.024V65.65C238.576 65.9393 238.431 66.084 238.142 66.084ZM244.525 66.112C244.067 66.112 243.657 66.0233 243.293 65.846C242.938 65.6687 242.653 65.426 242.439 65.118C242.233 64.81 242.131 64.4647 242.131 64.082C242.131 63.578 242.257 63.186 242.509 62.906C242.761 62.6167 243.185 62.4113 243.783 62.29C244.38 62.1687 245.201 62.108 246.247 62.108H246.681V61.604C246.681 60.9787 246.555 60.526 246.303 60.246C246.051 59.9567 245.649 59.812 245.099 59.812C244.744 59.812 244.399 59.8587 244.063 59.952C243.727 60.0453 243.377 60.1947 243.013 60.4C242.845 60.4933 242.709 60.498 242.607 60.414C242.513 60.3207 242.467 60.204 242.467 60.064C242.476 59.9147 242.555 59.8027 242.705 59.728C243.087 59.5133 243.484 59.3547 243.895 59.252C244.305 59.14 244.702 59.084 245.085 59.084C245.906 59.084 246.513 59.294 246.905 59.714C247.306 60.134 247.507 60.778 247.507 61.646V65.65C247.507 65.9393 247.376 66.084 247.115 66.084C246.835 66.084 246.695 65.9393 246.695 65.65V64.782C246.508 65.202 246.223 65.5287 245.841 65.762C245.467 65.9953 245.029 66.112 244.525 66.112ZM244.637 65.426C245.038 65.426 245.388 65.3327 245.687 65.146C245.995 64.95 246.237 64.684 246.415 64.348C246.592 64.012 246.681 63.6293 246.681 63.2V62.738H246.261C245.421 62.738 244.763 62.7753 244.287 62.85C243.82 62.9247 243.493 63.0553 243.307 63.242C243.12 63.4287 243.027 63.6853 243.027 64.012C243.027 64.432 243.171 64.7727 243.461 65.034C243.75 65.2953 244.142 65.426 244.637 65.426ZM255.716 66.084C255.446 66.084 255.245 65.9347 255.114 65.636L252.594 59.756C252.52 59.588 252.515 59.4387 252.58 59.308C252.646 59.1773 252.776 59.112 252.972 59.112C253.168 59.112 253.313 59.2287 253.406 59.462L255.716 65.062L258.054 59.462C258.101 59.3407 258.157 59.252 258.222 59.196C258.288 59.14 258.381 59.112 258.502 59.112C258.68 59.112 258.792 59.1773 258.838 59.308C258.894 59.4387 258.89 59.5833 258.824 59.742L256.304 65.636C256.183 65.9347 255.987 66.084 255.716 66.084ZM263.262 66.112C262.216 66.112 261.39 65.804 260.784 65.188C260.186 64.5627 259.888 63.7087 259.888 62.626C259.888 61.926 260.023 61.31 260.294 60.778C260.564 60.246 260.938 59.8307 261.414 59.532C261.899 59.2333 262.454 59.084 263.08 59.084C263.985 59.084 264.69 59.378 265.194 59.966C265.698 60.554 265.95 61.3613 265.95 62.388C265.95 62.6493 265.819 62.78 265.558 62.78H260.728C260.756 63.62 260.984 64.2687 261.414 64.726C261.852 65.174 262.459 65.398 263.234 65.398C263.579 65.398 263.91 65.356 264.228 65.272C264.554 65.1787 264.872 65.0153 265.18 64.782C265.348 64.67 265.492 64.6467 265.614 64.712C265.735 64.768 265.8 64.866 265.81 65.006C265.828 65.1367 265.758 65.258 265.6 65.37C265.301 65.6127 264.937 65.7993 264.508 65.93C264.088 66.0513 263.672 66.112 263.262 66.112ZM263.094 59.77C262.384 59.77 261.829 59.994 261.428 60.442C261.036 60.8807 260.807 61.45 260.742 62.15H265.18C265.161 61.4033 264.974 60.82 264.62 60.4C264.265 59.98 263.756 59.77 263.094 59.77ZM267.704 66C267.508 66 267.387 65.9253 267.34 65.776C267.303 65.6173 267.354 65.4493 267.494 65.272L271.428 59.896H267.648C267.406 59.896 267.284 59.7793 267.284 59.546C267.284 59.322 267.406 59.21 267.648 59.21H272.016C272.24 59.21 272.376 59.2893 272.422 59.448C272.478 59.5973 272.441 59.7513 272.31 59.91L268.348 65.314H272.282C272.525 65.314 272.646 65.426 272.646 65.65C272.646 65.8833 272.525 66 272.282 66H267.704ZM274.536 66.042C274.349 66.042 274.195 65.9813 274.074 65.86C273.953 65.7387 273.892 65.5847 273.892 65.398C273.892 65.2113 273.953 65.0573 274.074 64.936C274.195 64.8147 274.349 64.754 274.536 64.754C274.732 64.754 274.886 64.8147 274.998 64.936C275.119 65.0573 275.18 65.2113 275.18 65.398C275.18 65.5847 275.119 65.7387 274.998 65.86C274.886 65.9813 274.732 66.042 274.536 66.042Z" fill="#D14747"/>
<circle cx="54" cy="47" r="15" fill="#D14747"/>
<path d="M54.2 50.54C54.0267 50.54 53.88 50.4867 53.76 50.38C53.6533 50.26 53.5933 50.08 53.58 49.84L53.14 41.18C53.1133 40.82 53.1933 40.5333 53.38 40.32C53.5667 40.1067 53.84 40 54.2 40C54.5467 40 54.8133 40.1067 55 40.32C55.1867 40.5333 55.2667 40.82 55.24 41.18L54.8 49.84C54.7867 50.08 54.7267 50.26 54.62 50.38C54.5133 50.4867 54.3733 50.54 54.2 50.54ZM54.2 54.32C53.8533 54.32 53.5667 54.2067 53.34 53.98C53.1133 53.7533 53 53.4667 53 53.12C53 52.7733 53.1133 52.4933 53.34 52.28C53.5667 52.0667 53.8533 51.96 54.2 51.96C54.5733 51.96 54.86 52.0667 55.06 52.28C55.2733 52.4933 55.38 52.7733 55.38 53.12C55.38 53.4667 55.2733 53.7533 55.06 53.98C54.86 54.2067 54.5733 54.32 54.2 54.32Z" fill="white"/>
</svg>
