<svg width="331" height="97" viewBox="0 0 331 97" fill="none" xmlns="http://www.w3.org/2000/svg">
<rect width="329" height="95" rx="21" fill="#FFDBDB"/>
<path d="M101.085 47C100.755 47 100.589 46.8293 100.589 46.488V36.152C100.589 35.8107 100.749 35.64 101.069 35.64C101.4 35.64 101.565 35.8107 101.565 36.152V46.12H107.069C107.389 46.12 107.549 46.264 107.549 46.552C107.549 46.8507 107.389 47 107.069 47H101.085ZM111.36 47.128C110.837 47.128 110.368 47.0267 109.952 46.824C109.546 46.6213 109.221 46.344 108.976 45.992C108.741 45.64 108.624 45.2453 108.624 44.808C108.624 44.232 108.768 43.784 109.056 43.464C109.344 43.1333 109.829 42.8987 110.512 42.76C111.194 42.6213 112.133 42.552 113.328 42.552H113.824V41.976C113.824 41.2613 113.68 40.744 113.392 40.424C113.104 40.0933 112.645 39.928 112.016 39.928C111.61 39.928 111.216 39.9813 110.832 40.088C110.448 40.1947 110.048 40.3653 109.632 40.6C109.44 40.7067 109.285 40.712 109.168 40.616C109.061 40.5093 109.008 40.376 109.008 40.216C109.018 40.0453 109.109 39.9173 109.28 39.832C109.717 39.5867 110.17 39.4053 110.64 39.288C111.109 39.16 111.562 39.096 112 39.096C112.938 39.096 113.632 39.336 114.08 39.816C114.538 40.296 114.768 41.032 114.768 42.024V46.6C114.768 46.9307 114.618 47.096 114.32 47.096C114 47.096 113.84 46.9307 113.84 46.6V45.608C113.626 46.088 113.301 46.4613 112.864 46.728C112.437 46.9947 111.936 47.128 111.36 47.128ZM111.488 46.344C111.946 46.344 112.346 46.2373 112.688 46.024C113.04 45.8 113.317 45.496 113.52 45.112C113.722 44.728 113.824 44.2907 113.824 43.8V43.272H113.344C112.384 43.272 111.632 43.3147 111.088 43.4C110.554 43.4853 110.181 43.6347 109.968 43.848C109.754 44.0613 109.648 44.3547 109.648 44.728C109.648 45.208 109.813 45.5973 110.144 45.896C110.474 46.1947 110.922 46.344 111.488 46.344ZM124.518 47.128C123.761 47.128 123.11 46.9627 122.566 46.632C122.022 46.2907 121.601 45.816 121.302 45.208C121.014 44.5893 120.87 43.8747 120.87 43.064C120.87 41.8373 121.19 40.872 121.83 40.168C122.481 39.4533 123.377 39.096 124.518 39.096C124.913 39.096 125.318 39.1653 125.734 39.304C126.161 39.4427 126.54 39.6613 126.87 39.96C127.009 40.0667 127.062 40.1947 127.03 40.344C126.998 40.4933 126.913 40.6053 126.774 40.68C126.646 40.744 126.502 40.712 126.342 40.584C126.044 40.3387 125.74 40.1733 125.43 40.088C125.121 39.992 124.828 39.944 124.55 39.944C123.686 39.944 123.02 40.216 122.55 40.76C122.092 41.304 121.862 42.0773 121.862 43.08C121.862 44.0827 122.092 44.872 122.55 45.448C123.02 46.0133 123.686 46.296 124.55 46.296C124.828 46.296 125.121 46.2533 125.43 46.168C125.74 46.072 126.044 45.9013 126.342 45.656C126.513 45.528 126.657 45.5013 126.774 45.576C126.902 45.64 126.977 45.7467 126.998 45.896C127.03 46.0453 126.982 46.1733 126.854 46.28C126.524 46.5787 126.15 46.7973 125.734 46.936C125.318 47.064 124.913 47.128 124.518 47.128ZM131.626 47.128C130.9 47.128 130.271 46.968 129.738 46.648C129.204 46.3173 128.788 45.8533 128.49 45.256C128.202 44.648 128.058 43.9333 128.058 43.112C128.058 42.3013 128.202 41.5973 128.49 41C128.788 40.392 129.204 39.9227 129.738 39.592C130.271 39.2613 130.9 39.096 131.626 39.096C132.362 39.096 132.996 39.2613 133.53 39.592C134.063 39.9227 134.474 40.392 134.762 41C135.06 41.5973 135.21 42.3013 135.21 43.112C135.21 43.9333 135.06 44.648 134.762 45.256C134.474 45.8533 134.063 46.3173 133.53 46.648C132.996 46.968 132.362 47.128 131.626 47.128ZM131.626 46.312C132.415 46.312 133.044 46.0347 133.514 45.48C133.983 44.9147 134.218 44.1253 134.218 43.112C134.218 42.0987 133.983 41.3147 133.514 40.76C133.044 40.2053 132.415 39.928 131.626 39.928C130.836 39.928 130.207 40.2053 129.738 40.76C129.279 41.3147 129.05 42.0987 129.05 43.112C129.05 44.1253 129.279 44.9147 129.738 45.48C130.207 46.0347 130.836 46.312 131.626 46.312ZM137.784 47.096C137.453 47.096 137.288 46.9307 137.288 46.6V39.64C137.288 39.2987 137.453 39.128 137.784 39.128C138.093 39.128 138.248 39.2987 138.248 39.64V40.632C138.504 40.12 138.872 39.736 139.352 39.48C139.832 39.224 140.365 39.096 140.952 39.096C142.797 39.096 143.72 40.0987 143.72 42.104V46.6C143.72 46.9307 143.56 47.096 143.24 47.096C142.909 47.096 142.744 46.9307 142.744 46.6V42.184C142.744 41.416 142.589 40.8507 142.28 40.488C141.97 40.1253 141.48 39.944 140.808 39.944C140.04 39.944 139.421 40.184 138.952 40.664C138.493 41.1333 138.264 41.768 138.264 42.568V46.6C138.264 46.9307 138.104 47.096 137.784 47.096ZM149.169 47.128C148.305 47.128 147.654 46.8933 147.217 46.424C146.79 45.9547 146.577 45.2827 146.577 44.408V40.024H145.393C145.084 40.024 144.929 39.8907 144.929 39.624C144.929 39.368 145.084 39.24 145.393 39.24H146.577V37.24C146.577 36.9093 146.742 36.744 147.073 36.744C147.393 36.744 147.553 36.9093 147.553 37.24V39.24H149.713C150.012 39.24 150.161 39.368 150.161 39.624C150.161 39.8907 150.012 40.024 149.713 40.024H147.553V44.28C147.553 44.9307 147.686 45.4267 147.953 45.768C148.22 46.1093 148.662 46.28 149.281 46.28C149.494 46.28 149.67 46.2587 149.809 46.216C149.948 46.1627 150.07 46.136 150.177 46.136C150.369 46.136 150.465 46.2693 150.465 46.536C150.465 46.6213 150.444 46.7067 150.401 46.792C150.369 46.8667 150.305 46.92 150.209 46.952C150.092 46.9947 149.932 47.032 149.729 47.064C149.526 47.1067 149.34 47.128 149.169 47.128ZM152.096 47.096C151.766 47.096 151.6 46.9307 151.6 46.6V39.64C151.6 39.2987 151.766 39.128 152.096 39.128C152.406 39.128 152.56 39.2987 152.56 39.64V40.648C152.795 40.1467 153.142 39.7627 153.6 39.496C154.07 39.2293 154.608 39.0907 155.216 39.08C155.344 39.0693 155.451 39.096 155.536 39.16C155.622 39.224 155.664 39.3253 155.664 39.464C155.675 39.7627 155.52 39.928 155.2 39.96L154.976 39.976C154.219 40.04 153.632 40.2907 153.216 40.728C152.8 41.1547 152.592 41.7307 152.592 42.456V46.6C152.592 46.9307 152.427 47.096 152.096 47.096ZM159.391 47.128C158.868 47.128 158.399 47.0267 157.983 46.824C157.578 46.6213 157.252 46.344 157.007 45.992C156.772 45.64 156.655 45.2453 156.655 44.808C156.655 44.232 156.799 43.784 157.087 43.464C157.375 43.1333 157.86 42.8987 158.543 42.76C159.226 42.6213 160.164 42.552 161.359 42.552H161.855V41.976C161.855 41.2613 161.711 40.744 161.423 40.424C161.135 40.0933 160.676 39.928 160.047 39.928C159.642 39.928 159.247 39.9813 158.863 40.088C158.479 40.1947 158.079 40.3653 157.663 40.6C157.471 40.7067 157.316 40.712 157.199 40.616C157.092 40.5093 157.039 40.376 157.039 40.216C157.05 40.0453 157.14 39.9173 157.311 39.832C157.748 39.5867 158.202 39.4053 158.671 39.288C159.14 39.16 159.594 39.096 160.031 39.096C160.97 39.096 161.663 39.336 162.111 39.816C162.57 40.296 162.799 41.032 162.799 42.024V46.6C162.799 46.9307 162.65 47.096 162.351 47.096C162.031 47.096 161.871 46.9307 161.871 46.6V45.608C161.658 46.088 161.332 46.4613 160.895 46.728C160.468 46.9947 159.967 47.128 159.391 47.128ZM159.519 46.344C159.978 46.344 160.378 46.2373 160.719 46.024C161.071 45.8 161.348 45.496 161.551 45.112C161.754 44.728 161.855 44.2907 161.855 43.8V43.272H161.375C160.415 43.272 159.663 43.3147 159.119 43.4C158.586 43.4853 158.212 43.6347 157.999 43.848C157.786 44.0613 157.679 44.3547 157.679 44.728C157.679 45.208 157.844 45.5973 158.175 45.896C158.506 46.1947 158.954 46.344 159.519 46.344ZM167.878 47.128C167.398 47.128 166.918 47.064 166.438 46.936C165.969 46.808 165.521 46.5893 165.094 46.28C164.956 46.1947 164.892 46.0773 164.902 45.928C164.913 45.768 164.972 45.6453 165.078 45.56C165.196 45.4747 165.34 45.4853 165.51 45.592C165.926 45.8693 166.332 46.0613 166.726 46.168C167.121 46.2747 167.516 46.328 167.91 46.328C168.572 46.328 169.068 46.2107 169.398 45.976C169.74 45.7307 169.91 45.3947 169.91 44.968C169.91 44.6373 169.798 44.376 169.574 44.184C169.35 43.992 168.998 43.8373 168.518 43.72L167.126 43.4C165.814 43.1013 165.158 42.424 165.158 41.368C165.158 40.6853 165.425 40.136 165.958 39.72C166.492 39.304 167.196 39.096 168.07 39.096C168.529 39.096 168.972 39.1653 169.398 39.304C169.836 39.4427 170.214 39.656 170.534 39.944C170.673 40.0507 170.732 40.1787 170.71 40.328C170.689 40.4773 170.614 40.5893 170.486 40.664C170.369 40.7387 170.23 40.7173 170.07 40.6C169.761 40.3653 169.436 40.1947 169.094 40.088C168.753 39.9707 168.406 39.912 168.054 39.912C167.436 39.912 166.956 40.04 166.614 40.296C166.284 40.552 166.118 40.8987 166.118 41.336C166.118 41.6667 166.22 41.9333 166.422 42.136C166.625 42.3387 166.956 42.4933 167.414 42.6L168.806 42.92C169.5 43.08 170.017 43.32 170.358 43.64C170.7 43.9493 170.87 44.3707 170.87 44.904C170.87 45.5973 170.598 46.1413 170.054 46.536C169.51 46.9307 168.785 47.128 167.878 47.128ZM176.367 47.128C175.172 47.128 174.228 46.776 173.535 46.072C172.852 45.3573 172.511 44.3813 172.511 43.144C172.511 42.344 172.666 41.64 172.975 41.032C173.284 40.424 173.711 39.9493 174.255 39.608C174.81 39.2667 175.444 39.096 176.159 39.096C177.194 39.096 177.999 39.432 178.575 40.104C179.151 40.776 179.439 41.6987 179.439 42.872C179.439 43.1707 179.29 43.32 178.991 43.32H173.471C173.503 44.28 173.764 45.0213 174.255 45.544C174.756 46.056 175.45 46.312 176.335 46.312C176.73 46.312 177.108 46.264 177.471 46.168C177.844 46.0613 178.207 45.8747 178.559 45.608C178.751 45.48 178.916 45.4533 179.055 45.528C179.194 45.592 179.268 45.704 179.279 45.864C179.3 46.0133 179.22 46.152 179.039 46.28C178.698 46.5573 178.282 46.7707 177.791 46.92C177.311 47.0587 176.836 47.128 176.367 47.128ZM176.175 39.88C175.364 39.88 174.73 40.136 174.271 40.648C173.823 41.1493 173.562 41.8 173.487 42.6H178.559C178.538 41.7467 178.324 41.08 177.919 40.6C177.514 40.12 176.932 39.88 176.175 39.88ZM181.924 47.096C181.594 47.096 181.428 46.9307 181.428 46.6V39.64C181.428 39.2987 181.594 39.128 181.924 39.128C182.234 39.128 182.388 39.2987 182.388 39.64V40.632C182.644 40.12 183.012 39.736 183.492 39.48C183.972 39.224 184.506 39.096 185.092 39.096C186.938 39.096 187.86 40.0987 187.86 42.104V46.6C187.86 46.9307 187.7 47.096 187.38 47.096C187.05 47.096 186.884 46.9307 186.884 46.6V42.184C186.884 41.416 186.73 40.8507 186.42 40.488C186.111 40.1253 185.62 39.944 184.948 39.944C184.18 39.944 183.562 40.184 183.092 40.664C182.634 41.1333 182.404 41.768 182.404 42.568V46.6C182.404 46.9307 182.244 47.096 181.924 47.096ZM182.18 37.576C182.095 37.5653 182.02 37.528 181.956 37.464C181.892 37.4 181.876 37.304 181.908 37.176C181.994 36.664 182.164 36.248 182.42 35.928C182.687 35.608 183.044 35.448 183.492 35.448C183.738 35.448 183.962 35.512 184.164 35.64C184.367 35.768 184.554 35.9173 184.724 36.088C184.906 36.2587 185.082 36.4133 185.252 36.552C185.423 36.68 185.604 36.744 185.796 36.744C186.042 36.744 186.244 36.648 186.404 36.456C186.575 36.2533 186.698 35.976 186.772 35.624C186.804 35.4427 186.916 35.352 187.108 35.352C187.194 35.3627 187.268 35.4 187.332 35.464C187.396 35.528 187.412 35.624 187.38 35.752C187.295 36.264 187.119 36.68 186.852 37C186.596 37.32 186.244 37.48 185.796 37.48C185.551 37.48 185.327 37.416 185.124 37.288C184.922 37.16 184.73 37.0107 184.548 36.84C184.378 36.6693 184.207 36.52 184.036 36.392C183.866 36.2533 183.684 36.184 183.492 36.184C183.247 36.184 183.039 36.2853 182.868 36.488C182.708 36.68 182.591 36.952 182.516 37.304C182.484 37.4853 182.372 37.576 182.18 37.576ZM192.782 47.128C192.259 47.128 191.79 47.0267 191.374 46.824C190.968 46.6213 190.643 46.344 190.398 45.992C190.163 45.64 190.046 45.2453 190.046 44.808C190.046 44.232 190.19 43.784 190.478 43.464C190.766 43.1333 191.251 42.8987 191.934 42.76C192.616 42.6213 193.555 42.552 194.75 42.552H195.246V41.976C195.246 41.2613 195.102 40.744 194.814 40.424C194.526 40.0933 194.067 39.928 193.438 39.928C193.032 39.928 192.638 39.9813 192.254 40.088C191.87 40.1947 191.47 40.3653 191.054 40.6C190.862 40.7067 190.707 40.712 190.59 40.616C190.483 40.5093 190.43 40.376 190.43 40.216C190.44 40.0453 190.531 39.9173 190.702 39.832C191.139 39.5867 191.592 39.4053 192.062 39.288C192.531 39.16 192.984 39.096 193.422 39.096C194.36 39.096 195.054 39.336 195.502 39.816C195.96 40.296 196.19 41.032 196.19 42.024V46.6C196.19 46.9307 196.04 47.096 195.742 47.096C195.422 47.096 195.262 46.9307 195.262 46.6V45.608C195.048 46.088 194.723 46.4613 194.286 46.728C193.859 46.9947 193.358 47.128 192.782 47.128ZM192.91 46.344C193.368 46.344 193.768 46.2373 194.11 46.024C194.462 45.8 194.739 45.496 194.942 45.112C195.144 44.728 195.246 44.2907 195.246 43.8V43.272H194.766C193.806 43.272 193.054 43.3147 192.51 43.4C191.976 43.4853 191.603 43.6347 191.39 43.848C191.176 44.0613 191.07 44.3547 191.07 44.728C191.07 45.208 191.235 45.5973 191.566 45.896C191.896 46.1947 192.344 46.344 192.91 46.344ZM206.148 47.128C204.954 47.128 204.01 46.776 203.316 46.072C202.634 45.3573 202.292 44.3813 202.292 43.144C202.292 42.344 202.447 41.64 202.756 41.032C203.066 40.424 203.492 39.9493 204.036 39.608C204.591 39.2667 205.226 39.096 205.94 39.096C206.975 39.096 207.78 39.432 208.356 40.104C208.932 40.776 209.22 41.6987 209.22 42.872C209.22 43.1707 209.071 43.32 208.772 43.32H203.252C203.284 44.28 203.546 45.0213 204.036 45.544C204.538 46.056 205.231 46.312 206.116 46.312C206.511 46.312 206.89 46.264 207.252 46.168C207.626 46.0613 207.988 45.8747 208.34 45.608C208.532 45.48 208.698 45.4533 208.836 45.528C208.975 45.592 209.05 45.704 209.06 45.864C209.082 46.0133 209.002 46.152 208.82 46.28C208.479 46.5573 208.063 46.7707 207.572 46.92C207.092 47.0587 206.618 47.128 206.148 47.128ZM205.956 39.88C205.146 39.88 204.511 40.136 204.052 40.648C203.604 41.1493 203.343 41.8 203.268 42.6H208.34C208.319 41.7467 208.106 41.08 207.7 40.6C207.295 40.12 206.714 39.88 205.956 39.88ZM213.738 47.128C213.258 47.128 212.778 47.064 212.298 46.936C211.828 46.808 211.38 46.5893 210.954 46.28C210.815 46.1947 210.751 46.0773 210.762 45.928C210.772 45.768 210.831 45.6453 210.938 45.56C211.055 45.4747 211.199 45.4853 211.37 45.592C211.786 45.8693 212.191 46.0613 212.586 46.168C212.98 46.2747 213.375 46.328 213.77 46.328C214.431 46.328 214.927 46.2107 215.258 45.976C215.599 45.7307 215.77 45.3947 215.77 44.968C215.77 44.6373 215.658 44.376 215.434 44.184C215.21 43.992 214.858 43.8373 214.378 43.72L212.986 43.4C211.674 43.1013 211.018 42.424 211.018 41.368C211.018 40.6853 211.284 40.136 211.818 39.72C212.351 39.304 213.055 39.096 213.93 39.096C214.388 39.096 214.831 39.1653 215.258 39.304C215.695 39.4427 216.074 39.656 216.394 39.944C216.532 40.0507 216.591 40.1787 216.57 40.328C216.548 40.4773 216.474 40.5893 216.346 40.664C216.228 40.7387 216.09 40.7173 215.93 40.6C215.62 40.3653 215.295 40.1947 214.954 40.088C214.612 39.9707 214.266 39.912 213.914 39.912C213.295 39.912 212.815 40.04 212.474 40.296C212.143 40.552 211.978 40.8987 211.978 41.336C211.978 41.6667 212.079 41.9333 212.282 42.136C212.484 42.3387 212.815 42.4933 213.274 42.6L214.666 42.92C215.359 43.08 215.876 43.32 216.218 43.64C216.559 43.9493 216.73 44.3707 216.73 44.904C216.73 45.5973 216.458 46.1413 215.914 46.536C215.37 46.9307 214.644 47.128 213.738 47.128ZM223.378 37.24C222.908 37.24 222.674 37.016 222.674 36.568C222.674 36.1307 222.908 35.912 223.378 35.912C223.847 35.912 224.082 36.1307 224.082 36.568C224.082 37.016 223.847 37.24 223.378 37.24ZM223.378 47.064C223.047 47.064 222.882 46.888 222.882 46.536V39.688C222.882 39.3467 223.047 39.176 223.378 39.176C223.698 39.176 223.858 39.3467 223.858 39.688V46.536C223.858 46.888 223.698 47.064 223.378 47.064ZM226.924 47.096C226.594 47.096 226.428 46.9307 226.428 46.6V39.64C226.428 39.2987 226.594 39.128 226.924 39.128C227.234 39.128 227.388 39.2987 227.388 39.64V40.632C227.644 40.12 228.012 39.736 228.492 39.48C228.972 39.224 229.506 39.096 230.092 39.096C231.938 39.096 232.86 40.0987 232.86 42.104V46.6C232.86 46.9307 232.7 47.096 232.38 47.096C232.05 47.096 231.884 46.9307 231.884 46.6V42.184C231.884 41.416 231.73 40.8507 231.42 40.488C231.111 40.1253 230.62 39.944 229.948 39.944C229.18 39.944 228.562 40.184 228.092 40.664C227.634 41.1333 227.404 41.768 227.404 42.568V46.6C227.404 46.9307 227.244 47.096 226.924 47.096ZM238.55 47.128C237.792 47.128 237.142 46.9627 236.598 46.632C236.054 46.2907 235.632 45.816 235.334 45.208C235.046 44.5893 234.902 43.8747 234.902 43.064C234.902 41.8373 235.222 40.872 235.862 40.168C236.512 39.4533 237.408 39.096 238.55 39.096C238.944 39.096 239.35 39.1653 239.766 39.304C240.192 39.4427 240.571 39.6613 240.902 39.96C241.04 40.0667 241.094 40.1947 241.062 40.344C241.03 40.4933 240.944 40.6053 240.806 40.68C240.678 40.744 240.534 40.712 240.374 40.584C240.075 40.3387 239.771 40.1733 239.462 40.088C239.152 39.992 238.859 39.944 238.582 39.944C237.718 39.944 237.051 40.216 236.582 40.76C236.123 41.304 235.894 42.0773 235.894 43.08C235.894 44.0827 236.123 44.872 236.582 45.448C237.051 46.0133 237.718 46.296 238.582 46.296C238.859 46.296 239.152 46.2533 239.462 46.168C239.771 46.072 240.075 45.9013 240.374 45.656C240.544 45.528 240.688 45.5013 240.806 45.576C240.934 45.64 241.008 45.7467 241.03 45.896C241.062 46.0453 241.014 46.1733 240.886 46.28C240.555 46.5787 240.182 46.7973 239.766 46.936C239.35 47.064 238.944 47.128 238.55 47.128ZM245.657 47.128C244.932 47.128 244.302 46.968 243.769 46.648C243.236 46.3173 242.82 45.8533 242.521 45.256C242.233 44.648 242.089 43.9333 242.089 43.112C242.089 42.3013 242.233 41.5973 242.521 41C242.82 40.392 243.236 39.9227 243.769 39.592C244.302 39.2613 244.932 39.096 245.657 39.096C246.393 39.096 247.028 39.2613 247.561 39.592C248.094 39.9227 248.505 40.392 248.793 41C249.092 41.5973 249.241 42.3013 249.241 43.112C249.241 43.9333 249.092 44.648 248.793 45.256C248.505 45.8533 248.094 46.3173 247.561 46.648C247.028 46.968 246.393 47.128 245.657 47.128ZM245.657 46.312C246.446 46.312 247.076 46.0347 247.545 45.48C248.014 44.9147 248.249 44.1253 248.249 43.112C248.249 42.0987 248.014 41.3147 247.545 40.76C247.076 40.2053 246.446 39.928 245.657 39.928C244.868 39.928 244.238 40.2053 243.769 40.76C243.31 41.3147 243.081 42.0987 243.081 43.112C243.081 44.1253 243.31 44.9147 243.769 45.48C244.238 46.0347 244.868 46.312 245.657 46.312ZM251.815 47.096C251.484 47.096 251.319 46.9307 251.319 46.6V39.64C251.319 39.2987 251.484 39.128 251.815 39.128C252.124 39.128 252.279 39.2987 252.279 39.64V40.648C252.514 40.1467 252.86 39.7627 253.319 39.496C253.788 39.2293 254.327 39.0907 254.935 39.08C255.063 39.0693 255.17 39.096 255.255 39.16C255.34 39.224 255.383 39.3253 255.383 39.464C255.394 39.7627 255.239 39.928 254.919 39.96L254.695 39.976C253.938 40.04 253.351 40.2907 252.935 40.728C252.519 41.1547 252.311 41.7307 252.311 42.456V46.6C252.311 46.9307 252.146 47.096 251.815 47.096ZM257.284 47.096C256.953 47.096 256.788 46.9307 256.788 46.6V39.64C256.788 39.2987 256.953 39.128 257.284 39.128C257.593 39.128 257.748 39.2987 257.748 39.64V40.648C257.982 40.1467 258.329 39.7627 258.788 39.496C259.257 39.2293 259.796 39.0907 260.404 39.08C260.532 39.0693 260.638 39.096 260.724 39.16C260.809 39.224 260.852 39.3253 260.852 39.464C260.862 39.7627 260.708 39.928 260.388 39.96L260.164 39.976C259.406 40.04 258.82 40.2907 258.404 40.728C257.988 41.1547 257.78 41.7307 257.78 42.456V46.6C257.78 46.9307 257.614 47.096 257.284 47.096ZM265.539 47.128C264.344 47.128 263.4 46.776 262.707 46.072C262.024 45.3573 261.683 44.3813 261.683 43.144C261.683 42.344 261.837 41.64 262.147 41.032C262.456 40.424 262.883 39.9493 263.427 39.608C263.981 39.2667 264.616 39.096 265.331 39.096C266.365 39.096 267.171 39.432 267.747 40.104C268.323 40.776 268.611 41.6987 268.611 42.872C268.611 43.1707 268.461 43.32 268.163 43.32H262.643C262.675 44.28 262.936 45.0213 263.427 45.544C263.928 46.056 264.621 46.312 265.507 46.312C265.901 46.312 266.28 46.264 266.643 46.168C267.016 46.0613 267.379 45.8747 267.731 45.608C267.923 45.48 268.088 45.4533 268.227 45.528C268.365 45.592 268.44 45.704 268.451 45.864C268.472 46.0133 268.392 46.152 268.211 46.28C267.869 46.5573 267.453 46.7707 266.963 46.92C266.483 47.0587 266.008 47.128 265.539 47.128ZM265.347 39.88C264.536 39.88 263.901 40.136 263.443 40.648C262.995 41.1493 262.733 41.8 262.659 42.6H267.731C267.709 41.7467 267.496 41.08 267.091 40.6C266.685 40.12 266.104 39.88 265.347 39.88ZM273.768 47.128C273.011 47.128 272.36 46.9627 271.816 46.632C271.272 46.2907 270.851 45.816 270.552 45.208C270.264 44.5893 270.12 43.8747 270.12 43.064C270.12 41.8373 270.44 40.872 271.08 40.168C271.731 39.4533 272.627 39.096 273.768 39.096C274.163 39.096 274.568 39.1653 274.984 39.304C275.411 39.4427 275.79 39.6613 276.12 39.96C276.259 40.0667 276.312 40.1947 276.28 40.344C276.248 40.4933 276.163 40.6053 276.024 40.68C275.896 40.744 275.752 40.712 275.592 40.584C275.294 40.3387 274.99 40.1733 274.68 40.088C274.371 39.992 274.078 39.944 273.8 39.944C272.936 39.944 272.27 40.216 271.8 40.76C271.342 41.304 271.112 42.0773 271.112 43.08C271.112 44.0827 271.342 44.872 271.8 45.448C272.27 46.0133 272.936 46.296 273.8 46.296C274.078 46.296 274.371 46.2533 274.68 46.168C274.99 46.072 275.294 45.9013 275.592 45.656C275.763 45.528 275.907 45.5013 276.024 45.576C276.152 45.64 276.227 45.7467 276.248 45.896C276.28 46.0453 276.232 46.1733 276.104 46.28C275.774 46.5787 275.4 46.7973 274.984 46.936C274.568 47.064 274.163 47.128 273.768 47.128ZM280.872 47.128C280.008 47.128 279.357 46.8933 278.92 46.424C278.493 45.9547 278.28 45.2827 278.28 44.408V40.024H277.096C276.787 40.024 276.632 39.8907 276.632 39.624C276.632 39.368 276.787 39.24 277.096 39.24H278.28V37.24C278.28 36.9093 278.445 36.744 278.776 36.744C279.096 36.744 279.256 36.9093 279.256 37.24V39.24H281.416C281.715 39.24 281.864 39.368 281.864 39.624C281.864 39.8907 281.715 40.024 281.416 40.024H279.256V44.28C279.256 44.9307 279.389 45.4267 279.656 45.768C279.923 46.1093 280.365 46.28 280.984 46.28C281.197 46.28 281.373 46.2587 281.512 46.216C281.651 46.1627 281.773 46.136 281.88 46.136C282.072 46.136 282.168 46.2693 282.168 46.536C282.168 46.6213 282.147 46.7067 282.104 46.792C282.072 46.8667 282.008 46.92 281.912 46.952C281.795 46.9947 281.635 47.032 281.432 47.064C281.229 47.1067 281.043 47.128 280.872 47.128ZM285.703 47.128C285.181 47.128 284.711 47.0267 284.295 46.824C283.89 46.6213 283.565 46.344 283.319 45.992C283.085 45.64 282.967 45.2453 282.967 44.808C282.967 44.232 283.111 43.784 283.399 43.464C283.687 43.1333 284.173 42.8987 284.855 42.76C285.538 42.6213 286.477 42.552 287.671 42.552H288.167V41.976C288.167 41.2613 288.023 40.744 287.735 40.424C287.447 40.0933 286.989 39.928 286.359 39.928C285.954 39.928 285.559 39.9813 285.175 40.088C284.791 40.1947 284.391 40.3653 283.975 40.6C283.783 40.7067 283.629 40.712 283.511 40.616C283.405 40.5093 283.351 40.376 283.351 40.216C283.362 40.0453 283.453 39.9173 283.623 39.832C284.061 39.5867 284.514 39.4053 284.983 39.288C285.453 39.16 285.906 39.096 286.343 39.096C287.282 39.096 287.975 39.336 288.423 39.816C288.882 40.296 289.111 41.032 289.111 42.024V46.6C289.111 46.9307 288.962 47.096 288.663 47.096C288.343 47.096 288.183 46.9307 288.183 46.6V45.608C287.97 46.088 287.645 46.4613 287.207 46.728C286.781 46.9947 286.279 47.128 285.703 47.128ZM285.831 46.344C286.29 46.344 286.69 46.2373 287.031 46.024C287.383 45.8 287.661 45.496 287.863 45.112C288.066 44.728 288.167 44.2907 288.167 43.8V43.272H287.687C286.727 43.272 285.975 43.3147 285.431 43.4C284.898 43.4853 284.525 43.6347 284.311 43.848C284.098 44.0613 283.991 44.3547 283.991 44.728C283.991 45.208 284.157 45.5973 284.487 45.896C284.818 46.1947 285.266 46.344 285.831 46.344ZM292.143 47.048C291.929 47.048 291.753 46.9787 291.615 46.84C291.476 46.7013 291.407 46.5253 291.407 46.312C291.407 46.0987 291.476 45.9227 291.615 45.784C291.753 45.6453 291.929 45.576 292.143 45.576C292.367 45.576 292.543 45.6453 292.671 45.784C292.809 45.9227 292.879 46.0987 292.879 46.312C292.879 46.5253 292.809 46.7013 292.671 46.84C292.543 46.9787 292.367 47.048 292.143 47.048ZM119.649 66.084C119.369 66.084 119.229 65.9347 119.229 65.636V56.578C119.229 56.2793 119.374 56.13 119.663 56.13H122.953C124.008 56.13 124.811 56.382 125.361 56.886C125.921 57.39 126.201 58.1087 126.201 59.042C126.201 59.966 125.921 60.6847 125.361 61.198C124.811 61.702 124.008 61.954 122.953 61.954H120.083V65.636C120.083 65.9347 119.939 66.084 119.649 66.084ZM120.083 61.198H122.883C124.517 61.198 125.333 60.4793 125.333 59.042C125.333 57.5953 124.517 56.872 122.883 56.872H120.083V61.198ZM130.199 66.112C129.564 66.112 129.014 65.972 128.547 65.692C128.08 65.4027 127.716 64.9967 127.455 64.474C127.203 63.942 127.077 63.3167 127.077 62.598C127.077 61.8887 127.203 61.2727 127.455 60.75C127.716 60.218 128.08 59.8073 128.547 59.518C129.014 59.2287 129.564 59.084 130.199 59.084C130.843 59.084 131.398 59.2287 131.865 59.518C132.332 59.8073 132.691 60.218 132.943 60.75C133.204 61.2727 133.335 61.8887 133.335 62.598C133.335 63.3167 133.204 63.942 132.943 64.474C132.691 64.9967 132.332 65.4027 131.865 65.692C131.398 65.972 130.843 66.112 130.199 66.112ZM130.199 65.398C130.89 65.398 131.44 65.1553 131.851 64.67C132.262 64.1753 132.467 63.4847 132.467 62.598C132.467 61.7113 132.262 61.0253 131.851 60.54C131.44 60.0547 130.89 59.812 130.199 59.812C129.508 59.812 128.958 60.0547 128.547 60.54C128.146 61.0253 127.945 61.7113 127.945 62.598C127.945 63.4847 128.146 64.1753 128.547 64.67C128.958 65.1553 129.508 65.398 130.199 65.398ZM135.587 66.084C135.298 66.084 135.153 65.9393 135.153 65.65V59.56C135.153 59.2613 135.298 59.112 135.587 59.112C135.858 59.112 135.993 59.2613 135.993 59.56V60.442C136.199 60.0033 136.502 59.6673 136.903 59.434C137.314 59.2007 137.785 59.0793 138.317 59.07C138.429 59.0607 138.523 59.084 138.597 59.14C138.672 59.196 138.709 59.2847 138.709 59.406C138.719 59.6673 138.583 59.812 138.303 59.84L138.107 59.854C137.445 59.91 136.931 60.1293 136.567 60.512C136.203 60.8853 136.021 61.3893 136.021 62.024V65.65C136.021 65.9393 135.877 66.084 135.587 66.084ZM144.222 66.084C143.932 66.084 143.788 65.9393 143.788 65.65V59.896H142.794C142.532 59.896 142.402 59.7793 142.402 59.546C142.402 59.322 142.532 59.21 142.794 59.21H143.788V58.874C143.788 57.166 144.604 56.242 146.238 56.102L146.616 56.074C146.793 56.0647 146.905 56.116 146.952 56.228C147.008 56.3307 147.012 56.4427 146.966 56.564C146.919 56.6853 146.83 56.7507 146.7 56.76L146.308 56.802C145.729 56.8487 145.304 57.04 145.034 57.376C144.772 57.7027 144.642 58.1787 144.642 58.804V59.21H146.308C146.569 59.21 146.7 59.322 146.7 59.546C146.7 59.7793 146.569 59.896 146.308 59.896H144.642V65.65C144.642 65.9393 144.502 66.084 144.222 66.084ZM149.968 66.112C149.511 66.112 149.1 66.0233 148.736 65.846C148.381 65.6687 148.097 65.426 147.882 65.118C147.677 64.81 147.574 64.4647 147.574 64.082C147.574 63.578 147.7 63.186 147.952 62.906C148.204 62.6167 148.629 62.4113 149.226 62.29C149.823 62.1687 150.645 62.108 151.69 62.108H152.124V61.604C152.124 60.9787 151.998 60.526 151.746 60.246C151.494 59.9567 151.093 59.812 150.542 59.812C150.187 59.812 149.842 59.8587 149.506 59.952C149.17 60.0453 148.82 60.1947 148.456 60.4C148.288 60.4933 148.153 60.498 148.05 60.414C147.957 60.3207 147.91 60.204 147.91 60.064C147.919 59.9147 147.999 59.8027 148.148 59.728C148.531 59.5133 148.927 59.3547 149.338 59.252C149.749 59.14 150.145 59.084 150.528 59.084C151.349 59.084 151.956 59.294 152.348 59.714C152.749 60.134 152.95 60.778 152.95 61.646V65.65C152.95 65.9393 152.819 66.084 152.558 66.084C152.278 66.084 152.138 65.9393 152.138 65.65V64.782C151.951 65.202 151.667 65.5287 151.284 65.762C150.911 65.9953 150.472 66.112 149.968 66.112ZM150.08 65.426C150.481 65.426 150.831 65.3327 151.13 65.146C151.438 64.95 151.681 64.684 151.858 64.348C152.035 64.012 152.124 63.6293 152.124 63.2V62.738H151.704C150.864 62.738 150.206 62.7753 149.73 62.85C149.263 62.9247 148.937 63.0553 148.75 63.242C148.563 63.4287 148.47 63.6853 148.47 64.012C148.47 64.432 148.615 64.7727 148.904 65.034C149.193 65.2953 149.585 65.426 150.08 65.426ZM157.564 66.084C157.293 66.084 157.093 65.9347 156.962 65.636L154.442 59.756C154.367 59.588 154.363 59.4387 154.428 59.308C154.493 59.1773 154.624 59.112 154.82 59.112C155.016 59.112 155.161 59.2287 155.254 59.462L157.564 65.062L159.902 59.462C159.949 59.3407 160.005 59.252 160.07 59.196C160.135 59.14 160.229 59.112 160.35 59.112C160.527 59.112 160.639 59.1773 160.686 59.308C160.742 59.4387 160.737 59.5833 160.672 59.742L158.152 65.636C158.031 65.9347 157.835 66.084 157.564 66.084ZM164.857 66.112C164.222 66.112 163.672 65.972 163.205 65.692C162.738 65.4027 162.374 64.9967 162.113 64.474C161.861 63.942 161.735 63.3167 161.735 62.598C161.735 61.8887 161.861 61.2727 162.113 60.75C162.374 60.218 162.738 59.8073 163.205 59.518C163.672 59.2287 164.222 59.084 164.857 59.084C165.501 59.084 166.056 59.2287 166.523 59.518C166.99 59.8073 167.349 60.218 167.601 60.75C167.862 61.2727 167.993 61.8887 167.993 62.598C167.993 63.3167 167.862 63.942 167.601 64.474C167.349 64.9967 166.99 65.4027 166.523 65.692C166.056 65.972 165.501 66.112 164.857 66.112ZM164.857 65.398C165.548 65.398 166.098 65.1553 166.509 64.67C166.92 64.1753 167.125 63.4847 167.125 62.598C167.125 61.7113 166.92 61.0253 166.509 60.54C166.098 60.0547 165.548 59.812 164.857 59.812C164.166 59.812 163.616 60.0547 163.205 60.54C162.804 61.0253 162.603 61.7113 162.603 62.598C162.603 63.4847 162.804 64.1753 163.205 64.67C163.616 65.1553 164.166 65.398 164.857 65.398ZM170.245 66.084C169.956 66.084 169.811 65.9393 169.811 65.65V59.56C169.811 59.2613 169.956 59.112 170.245 59.112C170.516 59.112 170.651 59.2613 170.651 59.56V60.442C170.857 60.0033 171.16 59.6673 171.561 59.434C171.972 59.2007 172.443 59.0793 172.975 59.07C173.087 59.0607 173.181 59.084 173.255 59.14C173.33 59.196 173.367 59.2847 173.367 59.406C173.377 59.6673 173.241 59.812 172.961 59.84L172.765 59.854C172.103 59.91 171.589 60.1293 171.225 60.512C170.861 60.8853 170.679 61.3893 170.679 62.024V65.65C170.679 65.9393 170.535 66.084 170.245 66.084ZM178.558 57.46C178.147 57.46 177.942 57.264 177.942 56.872C177.942 56.4893 178.147 56.298 178.558 56.298C178.969 56.298 179.174 56.4893 179.174 56.872C179.174 57.264 178.969 57.46 178.558 57.46ZM178.558 66.056C178.269 66.056 178.124 65.902 178.124 65.594V59.602C178.124 59.3033 178.269 59.154 178.558 59.154C178.838 59.154 178.978 59.3033 178.978 59.602V65.594C178.978 65.902 178.838 66.056 178.558 66.056ZM181.661 66.084C181.372 66.084 181.227 65.9393 181.227 65.65V59.56C181.227 59.2613 181.372 59.112 181.661 59.112C181.932 59.112 182.067 59.2613 182.067 59.56V60.428C182.291 59.98 182.613 59.644 183.033 59.42C183.453 59.196 183.92 59.084 184.433 59.084C186.048 59.084 186.855 59.9613 186.855 61.716V65.65C186.855 65.9393 186.715 66.084 186.435 66.084C186.146 66.084 186.001 65.9393 186.001 65.65V61.786C186.001 61.114 185.866 60.6193 185.595 60.302C185.325 59.9847 184.895 59.826 184.307 59.826C183.635 59.826 183.094 60.036 182.683 60.456C182.282 60.8667 182.081 61.422 182.081 62.122V65.65C182.081 65.9393 181.941 66.084 181.661 66.084ZM191.623 66.112C190.867 66.112 190.298 65.9067 189.915 65.496C189.542 65.0853 189.355 64.4973 189.355 63.732V59.896H188.319C188.049 59.896 187.913 59.7793 187.913 59.546C187.913 59.322 188.049 59.21 188.319 59.21H189.355V57.46C189.355 57.1707 189.5 57.026 189.789 57.026C190.069 57.026 190.209 57.1707 190.209 57.46V59.21H192.099C192.361 59.21 192.491 59.322 192.491 59.546C192.491 59.7793 192.361 59.896 192.099 59.896H190.209V63.62C190.209 64.1893 190.326 64.6233 190.559 64.922C190.793 65.2207 191.18 65.37 191.721 65.37C191.908 65.37 192.062 65.3513 192.183 65.314C192.305 65.2673 192.412 65.244 192.505 65.244C192.673 65.244 192.757 65.3607 192.757 65.594C192.757 65.6687 192.739 65.7433 192.701 65.818C192.673 65.8833 192.617 65.93 192.533 65.958C192.431 65.9953 192.291 66.028 192.113 66.056C191.936 66.0933 191.773 66.112 191.623 66.112ZM196.637 66.112C195.591 66.112 194.765 65.804 194.159 65.188C193.561 64.5627 193.263 63.7087 193.263 62.626C193.263 61.926 193.398 61.31 193.669 60.778C193.939 60.246 194.313 59.8307 194.789 59.532C195.274 59.2333 195.829 59.084 196.455 59.084C197.36 59.084 198.065 59.378 198.569 59.966C199.073 60.554 199.325 61.3613 199.325 62.388C199.325 62.6493 199.194 62.78 198.933 62.78H194.103C194.131 63.62 194.359 64.2687 194.789 64.726C195.227 65.174 195.834 65.398 196.609 65.398C196.954 65.398 197.285 65.356 197.603 65.272C197.929 65.1787 198.247 65.0153 198.555 64.782C198.723 64.67 198.867 64.6467 198.989 64.712C199.11 64.768 199.175 64.866 199.185 65.006C199.203 65.1367 199.133 65.258 198.975 65.37C198.676 65.6127 198.312 65.7993 197.883 65.93C197.463 66.0513 197.047 66.112 196.637 66.112ZM196.469 59.77C195.759 59.77 195.204 59.994 194.803 60.442C194.411 60.8807 194.182 61.45 194.117 62.15H198.555C198.536 61.4033 198.349 60.82 197.995 60.4C197.64 59.98 197.131 59.77 196.469 59.77ZM201.499 66.084C201.21 66.084 201.065 65.9393 201.065 65.65V59.56C201.065 59.2613 201.21 59.112 201.499 59.112C201.77 59.112 201.905 59.2613 201.905 59.56V60.428C202.129 59.98 202.451 59.644 202.871 59.42C203.291 59.196 203.758 59.084 204.271 59.084C205.886 59.084 206.693 59.9613 206.693 61.716V65.65C206.693 65.9393 206.553 66.084 206.273 66.084C205.984 66.084 205.839 65.9393 205.839 65.65V61.786C205.839 61.114 205.704 60.6193 205.433 60.302C205.163 59.9847 204.733 59.826 204.145 59.826C203.473 59.826 202.932 60.036 202.521 60.456C202.12 60.8667 201.919 61.422 201.919 62.122V65.65C201.919 65.9393 201.779 66.084 201.499 66.084ZM211.461 66.112C210.705 66.112 210.136 65.9067 209.753 65.496C209.38 65.0853 209.193 64.4973 209.193 63.732V59.896H208.157C207.887 59.896 207.751 59.7793 207.751 59.546C207.751 59.322 207.887 59.21 208.157 59.21H209.193V57.46C209.193 57.1707 209.338 57.026 209.627 57.026C209.907 57.026 210.047 57.1707 210.047 57.46V59.21H211.937C212.199 59.21 212.329 59.322 212.329 59.546C212.329 59.7793 212.199 59.896 211.937 59.896H210.047V63.62C210.047 64.1893 210.164 64.6233 210.397 64.922C210.631 65.2207 211.018 65.37 211.559 65.37C211.746 65.37 211.9 65.3513 212.021 65.314C212.143 65.2673 212.25 65.244 212.343 65.244C212.511 65.244 212.595 65.3607 212.595 65.594C212.595 65.6687 212.577 65.7433 212.539 65.818C212.511 65.8833 212.455 65.93 212.371 65.958C212.269 65.9953 212.129 66.028 211.951 66.056C211.774 66.0933 211.611 66.112 211.461 66.112ZM215.689 66.112C215.231 66.112 214.821 66.0233 214.457 65.846C214.102 65.6687 213.817 65.426 213.603 65.118C213.397 64.81 213.295 64.4647 213.295 64.082C213.295 63.578 213.421 63.186 213.673 62.906C213.925 62.6167 214.349 62.4113 214.947 62.29C215.544 62.1687 216.365 62.108 217.411 62.108H217.845V61.604C217.845 60.9787 217.719 60.526 217.467 60.246C217.215 59.9567 216.813 59.812 216.263 59.812C215.908 59.812 215.563 59.8587 215.227 59.952C214.891 60.0453 214.541 60.1947 214.177 60.4C214.009 60.4933 213.873 60.498 213.771 60.414C213.677 60.3207 213.631 60.204 213.631 60.064C213.64 59.9147 213.719 59.8027 213.869 59.728C214.251 59.5133 214.648 59.3547 215.059 59.252C215.469 59.14 215.866 59.084 216.249 59.084C217.07 59.084 217.677 59.294 218.069 59.714C218.47 60.134 218.671 60.778 218.671 61.646V65.65C218.671 65.9393 218.54 66.084 218.279 66.084C217.999 66.084 217.859 65.9393 217.859 65.65V64.782C217.672 65.202 217.387 65.5287 217.005 65.762C216.631 65.9953 216.193 66.112 215.689 66.112ZM215.801 65.426C216.202 65.426 216.552 65.3327 216.851 65.146C217.159 64.95 217.401 64.684 217.579 64.348C217.756 64.012 217.845 63.6293 217.845 63.2V62.738H217.425C216.585 62.738 215.927 62.7753 215.451 62.85C214.984 62.9247 214.657 63.0553 214.471 63.242C214.284 63.4287 214.191 63.6853 214.191 64.012C214.191 64.432 214.335 64.7727 214.625 65.034C214.914 65.2953 215.306 65.426 215.801 65.426ZM227.133 66.112C226.498 66.112 225.947 65.972 225.481 65.692C225.014 65.4027 224.65 64.9967 224.389 64.474C224.137 63.942 224.011 63.3167 224.011 62.598C224.011 61.8887 224.137 61.2727 224.389 60.75C224.65 60.218 225.014 59.8073 225.481 59.518C225.947 59.2287 226.498 59.084 227.133 59.084C227.777 59.084 228.332 59.2287 228.799 59.518C229.265 59.8073 229.625 60.218 229.877 60.75C230.138 61.2727 230.269 61.8887 230.269 62.598C230.269 63.3167 230.138 63.942 229.877 64.474C229.625 64.9967 229.265 65.4027 228.799 65.692C228.332 65.972 227.777 66.112 227.133 66.112ZM227.133 65.398C227.823 65.398 228.374 65.1553 228.785 64.67C229.195 64.1753 229.401 63.4847 229.401 62.598C229.401 61.7113 229.195 61.0253 228.785 60.54C228.374 60.0547 227.823 59.812 227.133 59.812C226.442 59.812 225.891 60.0547 225.481 60.54C225.079 61.0253 224.879 61.7113 224.879 62.598C224.879 63.4847 225.079 64.1753 225.481 64.67C225.891 65.1553 226.442 65.398 227.133 65.398ZM234.58 66.112C233.824 66.112 233.255 65.9067 232.872 65.496C232.499 65.0853 232.312 64.4973 232.312 63.732V59.896H231.276C231.006 59.896 230.87 59.7793 230.87 59.546C230.87 59.322 231.006 59.21 231.276 59.21H232.312V57.46C232.312 57.1707 232.457 57.026 232.746 57.026C233.026 57.026 233.166 57.1707 233.166 57.46V59.21H235.056C235.318 59.21 235.448 59.322 235.448 59.546C235.448 59.7793 235.318 59.896 235.056 59.896H233.166V63.62C233.166 64.1893 233.283 64.6233 233.516 64.922C233.75 65.2207 234.137 65.37 234.678 65.37C234.865 65.37 235.019 65.3513 235.14 65.314C235.262 65.2673 235.369 65.244 235.462 65.244C235.63 65.244 235.714 65.3607 235.714 65.594C235.714 65.6687 235.696 65.7433 235.658 65.818C235.63 65.8833 235.574 65.93 235.49 65.958C235.388 65.9953 235.248 66.028 235.07 66.056C234.893 66.0933 234.73 66.112 234.58 66.112ZM237.142 66.084C236.853 66.084 236.708 65.9393 236.708 65.65V59.56C236.708 59.2613 236.853 59.112 237.142 59.112C237.413 59.112 237.548 59.2613 237.548 59.56V60.442C237.753 60.0033 238.057 59.6673 238.458 59.434C238.869 59.2007 239.34 59.0793 239.872 59.07C239.984 59.0607 240.077 59.084 240.152 59.14C240.227 59.196 240.264 59.2847 240.264 59.406C240.273 59.6673 240.138 59.812 239.858 59.84L239.662 59.854C238.999 59.91 238.486 60.1293 238.122 60.512C237.758 60.8853 237.576 61.3893 237.576 62.024V65.65C237.576 65.9393 237.431 66.084 237.142 66.084ZM243.525 66.112C243.067 66.112 242.657 66.0233 242.293 65.846C241.938 65.6687 241.653 65.426 241.439 65.118C241.233 64.81 241.131 64.4647 241.131 64.082C241.131 63.578 241.257 63.186 241.509 62.906C241.761 62.6167 242.185 62.4113 242.783 62.29C243.38 62.1687 244.201 62.108 245.247 62.108H245.681V61.604C245.681 60.9787 245.555 60.526 245.303 60.246C245.051 59.9567 244.649 59.812 244.099 59.812C243.744 59.812 243.399 59.8587 243.063 59.952C242.727 60.0453 242.377 60.1947 242.013 60.4C241.845 60.4933 241.709 60.498 241.607 60.414C241.513 60.3207 241.467 60.204 241.467 60.064C241.476 59.9147 241.555 59.8027 241.705 59.728C242.087 59.5133 242.484 59.3547 242.895 59.252C243.305 59.14 243.702 59.084 244.085 59.084C244.906 59.084 245.513 59.294 245.905 59.714C246.306 60.134 246.507 60.778 246.507 61.646V65.65C246.507 65.9393 246.376 66.084 246.115 66.084C245.835 66.084 245.695 65.9393 245.695 65.65V64.782C245.508 65.202 245.223 65.5287 244.841 65.762C244.467 65.9953 244.029 66.112 243.525 66.112ZM243.637 65.426C244.038 65.426 244.388 65.3327 244.687 65.146C244.995 64.95 245.237 64.684 245.415 64.348C245.592 64.012 245.681 63.6293 245.681 63.2V62.738H245.261C244.421 62.738 243.763 62.7753 243.287 62.85C242.82 62.9247 242.493 63.0553 242.307 63.242C242.12 63.4287 242.027 63.6853 242.027 64.012C242.027 64.432 242.171 64.7727 242.461 65.034C242.75 65.2953 243.142 65.426 243.637 65.426ZM254.716 66.084C254.446 66.084 254.245 65.9347 254.114 65.636L251.594 59.756C251.52 59.588 251.515 59.4387 251.58 59.308C251.646 59.1773 251.776 59.112 251.972 59.112C252.168 59.112 252.313 59.2287 252.406 59.462L254.716 65.062L257.054 59.462C257.101 59.3407 257.157 59.252 257.222 59.196C257.288 59.14 257.381 59.112 257.502 59.112C257.68 59.112 257.792 59.1773 257.838 59.308C257.894 59.4387 257.89 59.5833 257.824 59.742L255.304 65.636C255.183 65.9347 254.987 66.084 254.716 66.084ZM262.262 66.112C261.216 66.112 260.39 65.804 259.784 65.188C259.186 64.5627 258.888 63.7087 258.888 62.626C258.888 61.926 259.023 61.31 259.294 60.778C259.564 60.246 259.938 59.8307 260.414 59.532C260.899 59.2333 261.454 59.084 262.08 59.084C262.985 59.084 263.69 59.378 264.194 59.966C264.698 60.554 264.95 61.3613 264.95 62.388C264.95 62.6493 264.819 62.78 264.558 62.78H259.728C259.756 63.62 259.984 64.2687 260.414 64.726C260.852 65.174 261.459 65.398 262.234 65.398C262.579 65.398 262.91 65.356 263.228 65.272C263.554 65.1787 263.872 65.0153 264.18 64.782C264.348 64.67 264.492 64.6467 264.614 64.712C264.735 64.768 264.8 64.866 264.81 65.006C264.828 65.1367 264.758 65.258 264.6 65.37C264.301 65.6127 263.937 65.7993 263.508 65.93C263.088 66.0513 262.672 66.112 262.262 66.112ZM262.094 59.77C261.384 59.77 260.829 59.994 260.428 60.442C260.036 60.8807 259.807 61.45 259.742 62.15H264.18C264.161 61.4033 263.974 60.82 263.62 60.4C263.265 59.98 262.756 59.77 262.094 59.77ZM266.704 66C266.508 66 266.387 65.9253 266.34 65.776C266.303 65.6173 266.354 65.4493 266.494 65.272L270.428 59.896H266.648C266.406 59.896 266.284 59.7793 266.284 59.546C266.284 59.322 266.406 59.21 266.648 59.21H271.016C271.24 59.21 271.376 59.2893 271.422 59.448C271.478 59.5973 271.441 59.7513 271.31 59.91L267.348 65.314H271.282C271.525 65.314 271.646 65.426 271.646 65.65C271.646 65.8833 271.525 66 271.282 66H266.704ZM273.536 66.042C273.349 66.042 273.195 65.9813 273.074 65.86C272.953 65.7387 272.892 65.5847 272.892 65.398C272.892 65.2113 272.953 65.0573 273.074 64.936C273.195 64.8147 273.349 64.754 273.536 64.754C273.732 64.754 273.886 64.8147 273.998 64.936C274.119 65.0573 274.18 65.2113 274.18 65.398C274.18 65.5847 274.119 65.7387 273.998 65.86C273.886 65.9813 273.732 66.042 273.536 66.042Z" fill="#D14747"/>
<circle cx="54" cy="47" r="15" fill="#D14747"/>
<path d="M54.2 50.54C54.0267 50.54 53.88 50.4867 53.76 50.38C53.6533 50.26 53.5933 50.08 53.58 49.84L53.14 41.18C53.1133 40.82 53.1933 40.5333 53.38 40.32C53.5667 40.1067 53.84 40 54.2 40C54.5467 40 54.8133 40.1067 55 40.32C55.1867 40.5333 55.2667 40.82 55.24 41.18L54.8 49.84C54.7867 50.08 54.7267 50.26 54.62 50.38C54.5133 50.4867 54.3733 50.54 54.2 50.54ZM54.2 54.32C53.8533 54.32 53.5667 54.2067 53.34 53.98C53.1133 53.7533 53 53.4667 53 53.12C53 52.7733 53.1133 52.4933 53.34 52.28C53.5667 52.0667 53.8533 51.96 54.2 51.96C54.5733 51.96 54.86 52.0667 55.06 52.28C55.2733 52.4933 55.38 52.7733 55.38 53.12C55.38 53.4667 55.2733 53.7533 55.06 53.98C54.86 54.2067 54.5733 54.32 54.2 54.32Z" fill="white"/>
</svg>
