<svg width="75" height="75" viewBox="0 0 75 75" fill="none" xmlns="http://www.w3.org/2000/svg">
<circle cx="37.2727" cy="37.2727" r="37.2727" fill="#B08DBA" fill-opacity="0.35"/>
<path d="M47.25 30.9998C49.9424 30.9998 52.125 28.8172 52.125 26.1248C52.125 23.4324 49.9424 21.2498 47.25 21.2498C44.5576 21.2498 42.375 23.4324 42.375 26.1248C42.375 28.8172 44.5576 30.9998 47.25 30.9998Z" stroke="#252828" stroke-width="4.09524" stroke-linecap="round" stroke-linejoin="round"/>
<path d="M27.7503 42.3749C30.4427 42.3749 32.6253 40.1923 32.6253 37.4999C32.6253 34.8075 30.4427 32.6249 27.7503 32.6249C25.0579 32.6249 22.8753 34.8075 22.8753 37.4999C22.8753 40.1923 25.0579 42.3749 27.7503 42.3749Z" stroke="#252828" stroke-width="4.09524" stroke-linecap="round" stroke-linejoin="round"/>
<path d="M47.25 53.7499C49.9424 53.7499 52.125 51.5673 52.125 48.8749C52.125 46.1826 49.9424 43.9999 47.25 43.9999C44.5576 43.9999 42.375 46.1826 42.375 48.8749C42.375 51.5673 44.5576 53.7499 47.25 53.7499Z" stroke="#252828" stroke-width="4.09524" stroke-linecap="round" stroke-linejoin="round"/>
<path d="M31.959 39.9535L43.0578 46.421" stroke="#252828" stroke-width="4.09524" stroke-linecap="round" stroke-linejoin="round"/>
<path d="M43.0415 28.5787L31.959 35.0462" stroke="#252828" stroke-width="4.09524" stroke-linecap="round" stroke-linejoin="round"/>
</svg>
