<svg width="42" height="42" viewBox="0 0 42 42" fill="none" xmlns="http://www.w3.org/2000/svg">
<circle cx="20.7659" cy="20.7659" r="20.7659" fill="#7AAFB9" fill-opacity="0.42"/>
<path d="M25.9963 18.0602C25.3137 18.0385 24.6526 17.8163 24.0954 17.4213C23.5383 17.0262 23.1098 16.4759 22.8635 15.8389C22.6171 15.2019 22.5638 14.5064 22.7102 13.8393C22.8566 13.1722 23.1962 12.563 23.6866 12.0877C24.177 11.6123 24.7966 11.292 25.4679 11.1665C26.1393 11.041 26.8327 11.116 27.4617 11.3821C28.0907 11.6483 28.6274 12.0937 29.0048 12.6629C29.3822 13.2321 29.5837 13.8999 29.584 14.5829C29.5681 15.5193 29.1814 16.4112 28.5089 17.0631C27.8364 17.7149 26.9328 18.0735 25.9963 18.0602ZM25.9963 12.7614C25.6399 12.7819 25.2974 12.9064 25.0109 13.1194C24.7245 13.3324 24.5067 13.6247 24.3845 13.9601C24.2624 14.2956 24.2412 14.6594 24.3235 15.0068C24.4058 15.3541 24.5881 15.6698 24.8479 15.9147C25.1076 16.1596 25.4334 16.323 25.785 16.3848C26.1366 16.4466 26.4986 16.404 26.8262 16.2623C27.1539 16.1207 27.4329 15.8861 27.6287 15.5876C27.8246 15.2892 27.9287 14.9399 27.9282 14.5829C27.9123 14.0856 27.7002 13.6148 27.3382 13.2735C26.9761 12.9321 26.4937 12.748 25.9963 12.7614Z" fill="#15353B"/>
<path d="M14.9571 24.2421C14.2745 24.2204 13.6134 23.9982 13.0562 23.6032C12.4991 23.2081 12.0706 22.6578 11.8243 22.0208C11.5779 21.3838 11.5246 20.6883 11.671 20.0212C11.8174 19.3541 12.157 18.7449 12.6474 18.2696C13.1378 17.7943 13.7574 17.4739 14.4287 17.3484C15.1001 17.2229 15.7935 17.2979 16.4225 17.5641C17.0515 17.8302 17.5882 18.2757 17.9656 18.8449C18.3431 19.4141 18.5445 20.0818 18.5449 20.7648C18.5289 21.7012 18.1422 22.5931 17.4697 23.245C16.7972 23.8968 15.8936 24.2554 14.9571 24.2421ZM14.9571 18.9433C14.6008 18.9638 14.2582 19.0883 13.9717 19.3013C13.6853 19.5144 13.4675 19.8066 13.3454 20.1421C13.2232 20.4775 13.202 20.8414 13.2843 21.1887C13.3667 21.5361 13.549 21.8517 13.8087 22.0966C14.0684 22.3415 14.3942 22.5049 14.7458 22.5667C15.0974 22.6285 15.4594 22.5859 15.7871 22.4442C16.1147 22.3026 16.3937 22.068 16.5895 21.7695C16.7854 21.4711 16.8895 21.1218 16.889 20.7648C16.8731 20.2675 16.661 19.7967 16.299 19.4554C15.937 19.114 15.4545 18.9299 14.9571 18.9433Z" fill="#15353B"/>
<path d="M25.9963 30.424C25.3137 30.4023 24.6526 30.1801 24.0954 29.7851C23.5383 29.3901 23.1098 28.8397 22.8635 28.2027C22.6171 27.5657 22.5638 26.8703 22.7102 26.2032C22.8566 25.5361 23.1962 24.9268 23.6866 24.4515C24.177 23.9762 24.7966 23.6558 25.4679 23.5303C26.1393 23.4048 26.8327 23.4799 27.4617 23.746C28.0907 24.0121 28.6274 24.4576 29.0048 25.0268C29.3822 25.596 29.5837 26.2637 29.584 26.9467C29.5681 27.8832 29.1814 28.7751 28.5089 29.4269C27.8364 30.0787 26.9328 30.4373 25.9963 30.424ZM25.9963 25.1252C25.6399 25.1457 25.2974 25.2702 25.0109 25.4832C24.7245 25.6963 24.5067 25.9886 24.3845 26.324C24.2624 26.6594 24.2412 27.0233 24.3235 27.3706C24.4058 27.718 24.5881 28.0336 24.8479 28.2785C25.1076 28.5234 25.4334 28.6868 25.785 28.7486C26.1366 28.8104 26.4986 28.7678 26.8262 28.6262C27.1539 28.4845 27.4329 28.2499 27.6287 27.9515C27.8246 27.653 27.9287 27.3037 27.9282 26.9467C27.9123 26.4494 27.7002 25.9786 27.3382 25.6373C26.9761 25.296 26.4937 25.1119 25.9963 25.1252Z" fill="#15353B"/>
<path d="M23.6229 26.4389C23.4817 26.4396 23.3429 26.4034 23.22 26.334L16.9332 22.8236C16.8382 22.7703 16.7547 22.6989 16.6874 22.6133C16.62 22.5277 16.5702 22.4297 16.5407 22.3249C16.5112 22.2201 16.5027 22.1105 16.5156 22.0024C16.5285 21.8943 16.5625 21.7898 16.6158 21.6948C16.6691 21.5999 16.7405 21.5163 16.8261 21.449C16.9116 21.3817 17.0096 21.3318 17.1144 21.3024C17.2193 21.2729 17.3289 21.2644 17.437 21.2772C17.5451 21.2901 17.6496 21.3242 17.7446 21.3775L24.0258 24.9045C24.1859 24.9937 24.3118 25.1336 24.3838 25.3021C24.4558 25.4706 24.4699 25.6583 24.4238 25.8357C24.3778 26.0131 24.2741 26.1702 24.1292 26.2823C23.9842 26.3945 23.8062 26.4554 23.6229 26.4554V26.4389Z" fill="#15353B"/>
<path d="M17.314 20.257C17.1325 20.2548 16.9568 20.193 16.8138 20.0812C16.6709 19.9694 16.5687 19.8136 16.5229 19.638C16.4771 19.4624 16.4903 19.2766 16.5604 19.1092C16.6306 18.9418 16.7538 18.8021 16.9111 18.7115L23.1868 15.1956C23.2818 15.1321 23.3889 15.0889 23.5014 15.0689C23.6138 15.0488 23.7292 15.0522 23.8403 15.0789C23.9514 15.1056 24.0558 15.155 24.1468 15.2239C24.2379 15.2929 24.3137 15.38 24.3695 15.4797C24.4252 15.5794 24.4598 15.6896 24.4709 15.8033C24.482 15.917 24.4695 16.0318 24.4341 16.1404C24.3987 16.249 24.3412 16.3491 24.2653 16.4345C24.1893 16.5198 24.0965 16.5885 23.9927 16.6362L17.7225 20.1521C17.5973 20.2208 17.4568 20.2569 17.314 20.257Z" fill="#15353B"/>
</svg>
