<svg width="28" height="28" viewBox="0 0 28 28" fill="none" xmlns="http://www.w3.org/2000/svg">
<path d="M23.549 27.0096H1.87196C1.63241 27.0096 1.40268 26.9145 1.2333 26.7451C1.06391 26.5757 0.96875 26.346 0.96875 26.1064V25.5043C0.96875 22.0239 6.09898 17.9775 12.7105 17.9775C19.322 17.9775 24.4522 22.0239 24.4522 25.5043V26.1064C24.4522 26.346 24.357 26.5757 24.1877 26.7451C24.0183 26.9145 23.7885 27.0096 23.549 27.0096ZM2.77517 25.2032H22.6458C22.2965 22.9572 18.1538 19.784 12.7346 19.784C7.3153 19.784 3.1485 22.9572 2.77517 25.2032Z" fill="#15353B"/>
<path d="M12.7105 15.5689C11.5195 15.5689 10.3554 15.2158 9.36514 14.5541C8.37493 13.8925 7.60315 12.9521 7.14741 11.8518C6.69166 10.7515 6.57242 9.54084 6.80476 8.37281C7.0371 7.20477 7.61057 6.13186 8.45268 5.28975C9.29479 4.44764 10.3677 3.87416 11.5357 3.64182C12.7038 3.40949 13.9145 3.52873 15.0147 3.98448C16.115 4.44022 17.0554 5.212 17.7171 6.20221C18.3787 7.19243 18.7319 8.3566 18.7319 9.54752C18.7319 11.1445 18.0975 12.6761 16.9682 13.8053C15.839 14.9345 14.3074 15.5689 12.7105 15.5689ZM12.7105 5.33255C11.8768 5.33255 11.0619 5.57975 10.3687 6.0429C9.67559 6.50604 9.13534 7.16433 8.81632 7.93452C8.4973 8.70471 8.41383 9.5522 8.57647 10.3698C8.7391 11.1875 9.14054 11.9385 9.73001 12.528C10.3195 13.1174 11.0705 13.5189 11.8882 13.6815C12.7058 13.8441 13.5533 13.7607 14.3235 13.4417C15.0936 13.1226 15.7519 12.5824 16.2151 11.8892C16.6782 11.1961 16.9254 10.3812 16.9254 9.54752C16.9254 8.42964 16.4814 7.35755 15.6909 6.56709C14.9004 5.77662 13.8283 5.33255 12.7105 5.33255Z" fill="#15353B"/>
<path d="M23.6995 8.07838C23.5274 8.07718 23.3589 8.02932 23.2118 7.93989L23.1636 7.90376C20.1529 5.59154 19.6833 3.88749 19.6833 3.08664C19.6864 2.47604 19.9317 1.89163 20.3651 1.46157C20.7986 1.0315 21.3849 0.790886 21.9955 0.792488C22.62 0.81875 23.2187 1.04934 23.6995 1.44882C24.1826 1.04928 24.7832 0.818769 25.4096 0.792488C26.0192 0.79248 26.6039 1.0338 27.0361 1.46369C27.4682 1.89359 27.7126 2.47709 27.7158 3.08664C27.7158 3.79114 27.3786 5.6638 24.2294 7.90376C24.0734 8.012 23.8893 8.07266 23.6995 8.07838ZM21.9955 1.98473C21.7043 1.98312 21.4243 2.09685 21.2166 2.30108C21.009 2.5053 20.8907 2.7834 20.8875 3.0746C20.8875 3.43588 21.0983 4.76059 23.7116 6.80185C26.3068 4.89306 26.5115 3.47201 26.5115 3.0746C26.5107 2.93068 26.4816 2.78833 26.4258 2.65568C26.37 2.52302 26.2886 2.40265 26.1863 2.30144C26.084 2.20024 25.9627 2.12018 25.8294 2.06584C25.6962 2.0115 25.5535 1.98393 25.4096 1.98473C24.9231 2.04806 24.476 2.28551 24.1511 2.6531L23.6995 3.16492L23.2479 2.6531C22.9266 2.28414 22.4808 2.04625 21.9955 1.98473Z" fill="#15353B"/>
</svg>
