<svg width="135" height="49" viewBox="0 0 135 49" fill="none" xmlns="http://www.w3.org/2000/svg">
<rect width="134" height="48" rx="24" fill="#2B6C78"/>
<rect width="134.281" height="48.2807" rx="24.1404" fill="#7AAFB9"/>
<path d="M40.461 30.114C40.2076 30.114 40.043 30.038 39.967 29.886C39.891 29.7213 39.9036 29.525 40.005 29.297L45.344 17.023C45.496 16.6683 45.7303 16.491 46.047 16.491C46.3636 16.491 46.598 16.6683 46.75 17.023L52.089 29.297C52.203 29.525 52.222 29.7213 52.146 29.886C52.0826 30.038 51.9306 30.114 51.69 30.114C51.5126 30.114 51.367 30.0697 51.253 29.981C51.1516 29.8797 51.063 29.7467 50.987 29.582L49.638 26.428H42.456L41.107 29.582C40.955 29.9367 40.7396 30.114 40.461 30.114ZM46.028 18.049L42.893 25.421H49.201L46.066 18.049H46.028ZM55.0089 30.114C54.6162 30.114 54.4199 29.9177 54.4199 29.525V21.26C54.4199 20.8547 54.6162 20.652 55.0089 20.652C55.3762 20.652 55.5599 20.8547 55.5599 21.26V22.438C55.8639 21.83 56.3009 21.374 56.8709 21.07C57.4409 20.766 58.0742 20.614 58.7709 20.614C60.9622 20.614 62.0579 21.8047 62.0579 24.186V29.525C62.0579 29.9177 61.8679 30.114 61.4879 30.114C61.0952 30.114 60.8989 29.9177 60.8989 29.525V24.281C60.8989 23.369 60.7152 22.6977 60.3479 22.267C59.9806 21.8363 59.3979 21.621 58.5999 21.621C57.6879 21.621 56.9532 21.906 56.3959 22.476C55.8512 23.0333 55.5789 23.787 55.5789 24.737V29.525C55.5789 29.9177 55.3889 30.114 55.0089 30.114ZM55.3129 18.809C55.2115 18.7963 55.1229 18.752 55.0469 18.676C54.9709 18.6 54.9519 18.486 54.9899 18.334C55.0912 17.726 55.2939 17.232 55.5979 16.852C55.9146 16.472 56.3389 16.282 56.8709 16.282C57.1622 16.282 57.4282 16.358 57.6689 16.51C57.9096 16.662 58.1312 16.8393 58.3339 17.042C58.5492 17.2447 58.7582 17.4283 58.9609 17.593C59.1636 17.745 59.3789 17.821 59.6069 17.821C59.8982 17.821 60.1389 17.707 60.3289 17.479C60.5316 17.2383 60.6772 16.909 60.7659 16.491C60.8039 16.2757 60.9369 16.168 61.1649 16.168C61.2662 16.1807 61.3549 16.225 61.4309 16.301C61.5069 16.377 61.5259 16.491 61.4879 16.643C61.3866 17.251 61.1776 17.745 60.8609 18.125C60.5569 18.505 60.1389 18.695 59.6069 18.695C59.3156 18.695 59.0496 18.619 58.8089 18.467C58.5682 18.315 58.3402 18.1377 58.1249 17.935C57.9222 17.7323 57.7196 17.555 57.5169 17.403C57.3142 17.2383 57.0989 17.156 56.8709 17.156C56.5796 17.156 56.3326 17.2763 56.1299 17.517C55.9399 17.745 55.8005 18.068 55.7119 18.486C55.6739 18.7013 55.5409 18.809 55.3129 18.809ZM67.9017 30.152C67.2811 30.152 66.7237 30.0317 66.2297 29.791C65.7484 29.5503 65.3621 29.221 65.0707 28.803C64.7921 28.385 64.6527 27.9163 64.6527 27.397C64.6527 26.713 64.8237 26.181 65.1657 25.801C65.5077 25.4083 66.0841 25.1297 66.8947 24.965C67.7054 24.8003 68.8201 24.718 70.2387 24.718H70.8277V24.034C70.8277 23.1853 70.6567 22.571 70.3147 22.191C69.9727 21.7983 69.4281 21.602 68.6807 21.602C68.1994 21.602 67.7307 21.6653 67.2747 21.792C66.8187 21.9187 66.3437 22.1213 65.8497 22.4C65.6217 22.5267 65.4381 22.533 65.2987 22.419C65.1721 22.2923 65.1087 22.134 65.1087 21.944C65.1214 21.7413 65.2291 21.5893 65.4317 21.488C65.9511 21.1967 66.4894 20.9813 67.0467 20.842C67.6041 20.69 68.1424 20.614 68.6617 20.614C69.7764 20.614 70.5997 20.899 71.1317 21.469C71.6764 22.039 71.9487 22.913 71.9487 24.091V29.525C71.9487 29.9177 71.7714 30.114 71.4167 30.114C71.0367 30.114 70.8467 29.9177 70.8467 29.525V28.347C70.5934 28.917 70.2071 29.3603 69.6877 29.677C69.1811 29.9937 68.5857 30.152 67.9017 30.152ZM68.0537 29.221C68.5984 29.221 69.0734 29.0943 69.4787 28.841C69.8967 28.575 70.2261 28.214 70.4667 27.758C70.7074 27.302 70.8277 26.7827 70.8277 26.2V25.573H70.2577C69.1177 25.573 68.2247 25.6237 67.5787 25.725C66.9454 25.8263 66.5021 26.0037 66.2487 26.257C65.9954 26.5103 65.8687 26.8587 65.8687 27.302C65.8687 27.872 66.0651 28.3343 66.4577 28.689C66.8504 29.0437 67.3824 29.221 68.0537 29.221ZM78.4935 30.152C77.6575 30.152 76.9355 29.962 76.3275 29.582C75.7195 29.1893 75.2445 28.6383 74.9025 27.929C74.5731 27.207 74.4085 26.3583 74.4085 25.383C74.4085 23.9263 74.7758 22.7673 75.5105 21.906C76.2451 21.0447 77.2395 20.614 78.4935 20.614C79.2281 20.614 79.8741 20.785 80.4315 21.127C81.0015 21.4563 81.4258 21.9123 81.7045 22.495V17.08C81.7045 16.6873 81.8945 16.491 82.2745 16.491C82.6671 16.491 82.8635 16.6873 82.8635 17.08V29.525C82.8635 29.9177 82.6735 30.114 82.2935 30.114C81.9008 30.114 81.7045 29.9177 81.7045 29.525V28.271C81.4258 28.8537 81.0015 29.316 80.4315 29.658C79.8741 29.9873 79.2281 30.152 78.4935 30.152ZM78.6455 29.183C79.5828 29.183 80.3301 28.8537 80.8875 28.195C81.4448 27.5237 81.7235 26.5863 81.7235 25.383C81.7235 24.1797 81.4448 23.2487 80.8875 22.59C80.3301 21.9313 79.5828 21.602 78.6455 21.602C77.7081 21.602 76.9608 21.9313 76.4035 22.59C75.8588 23.2487 75.5865 24.1797 75.5865 25.383C75.5865 26.5863 75.8588 27.5237 76.4035 28.195C76.9608 28.8537 77.7081 29.183 78.6455 29.183ZM86.4962 18.41C85.9389 18.41 85.6602 18.144 85.6602 17.612C85.6602 17.0927 85.9389 16.833 86.4962 16.833C87.0535 16.833 87.3322 17.0927 87.3322 17.612C87.3322 18.144 87.0535 18.41 86.4962 18.41ZM86.4962 30.076C86.1035 30.076 85.9072 29.867 85.9072 29.449V21.317C85.9072 20.9117 86.1035 20.709 86.4962 20.709C86.8762 20.709 87.0662 20.9117 87.0662 21.317V29.449C87.0662 29.867 86.8762 30.076 86.4962 30.076ZM90.7081 30.114C90.3154 30.114 90.1191 29.9177 90.1191 29.525V21.26C90.1191 20.8547 90.3154 20.652 90.7081 20.652C91.0754 20.652 91.2591 20.8547 91.2591 21.26V22.457C91.5378 21.8617 91.9494 21.4057 92.4941 21.089C93.0514 20.7723 93.6911 20.6077 94.4131 20.595C94.5651 20.5823 94.6918 20.614 94.7931 20.69C94.8944 20.766 94.9451 20.8863 94.9451 21.051C94.9578 21.4057 94.7741 21.602 94.3941 21.64L94.1281 21.659C93.2288 21.735 92.5321 22.0327 92.0381 22.552C91.5441 23.0587 91.2971 23.7427 91.2971 24.604V29.525C91.2971 29.9177 91.1008 30.114 90.7081 30.114Z" fill="white"/>
</svg>
