<svg width="33" height="35" viewBox="0 0 33 35" fill="none" xmlns="http://www.w3.org/2000/svg">
<ellipse cx="16.513" cy="17.1461" rx="16.4602" ry="17.1461" fill="#7AAFB9"/>
<path d="M15.3535 25.0556C15.3535 25.3932 15.4344 25.6836 15.6316 25.8889C15.8302 26.0958 16.1135 26.1821 16.4429 26.1821C16.7723 26.1821 17.0556 26.0958 17.2543 25.8889C17.4514 25.6836 17.5324 25.3932 17.5324 25.0556V18.0574H24.1058C24.4332 18.0574 24.7154 17.9753 24.9144 17.776C25.1133 17.5768 25.1952 17.2942 25.1952 16.9665C25.1952 16.6388 25.1133 16.3563 24.9144 16.1571C24.7154 15.9578 24.4332 15.8757 24.1058 15.8757H17.5324V9.09129C17.5324 8.75363 17.4514 8.46329 17.2543 8.25791C17.0556 8.05101 16.7723 7.96479 16.4429 7.96479C16.1135 7.96479 15.8302 8.05101 15.6316 8.25791C15.4344 8.46329 15.3535 8.75363 15.3535 9.09129V15.8757H8.78006C8.45267 15.8757 8.17041 15.9578 7.97145 16.1571C7.77254 16.3563 7.69062 16.6388 7.69062 16.9665C7.69062 17.2942 7.77254 17.5768 7.97145 17.776C8.17041 17.9753 8.45267 18.0574 8.78006 18.0574H15.3535V25.0556Z" fill="white" stroke="white" stroke-width="0.4"/>
</svg>
