<svg width="176" height="49" viewBox="0 0 176 49" fill="none" xmlns="http://www.w3.org/2000/svg">
<rect width="175" height="48" rx="24" fill="#2B6C78"/>
<rect width="175.018" height="48.2807" rx="24.1404" fill="#7AAFB9"/>
<path d="M60.5646 30.171C59.1079 30.171 57.8792 29.8987 56.8786 29.354C55.8779 28.7967 55.1179 28.005 54.5986 26.979C54.0919 25.953 53.8386 24.7307 53.8386 23.312C53.8386 21.906 54.0982 20.69 54.6176 19.664C55.1369 18.6253 55.8906 17.8273 56.8786 17.27C57.8666 16.7127 59.0509 16.434 60.4316 16.434C61.1916 16.434 61.9326 16.5353 62.6546 16.738C63.3892 16.928 64.0669 17.2447 64.6876 17.688C64.9029 17.84 65.0232 18.03 65.0486 18.258C65.0866 18.4733 65.0486 18.6823 64.9346 18.885C64.8332 19.075 64.6812 19.208 64.4786 19.284C64.2759 19.3473 64.0479 19.303 63.7946 19.151C63.3006 18.809 62.7812 18.562 62.2366 18.41C61.6919 18.2453 61.0902 18.163 60.4316 18.163C58.9496 18.163 57.8222 18.6127 57.0496 19.512C56.2769 20.3987 55.8906 21.6653 55.8906 23.312C55.8906 24.9967 56.2832 26.276 57.0686 27.15C57.8666 28.024 59.0572 28.461 60.6406 28.461C61.6032 28.461 62.5596 28.3027 63.5096 27.986V24.395H61.0586C60.5139 24.395 60.2416 24.1417 60.2416 23.635C60.2416 23.1537 60.5139 22.913 61.0586 22.913H64.3456C64.8902 22.913 65.1626 23.1853 65.1626 23.73V28.518C65.1626 28.9993 64.9852 29.3097 64.6306 29.449C64.0859 29.6643 63.4462 29.8417 62.7116 29.981C61.9769 30.1077 61.2612 30.171 60.5646 30.171ZM72.334 30.171C70.814 30.171 69.617 29.7467 68.743 28.898C67.869 28.0367 67.432 26.865 67.432 25.383C67.432 24.433 67.622 23.597 68.002 22.875C68.3947 22.1403 68.933 21.5703 69.617 21.165C70.301 20.7597 71.0864 20.557 71.973 20.557C73.2524 20.557 74.2594 20.9687 74.994 21.792C75.7287 22.6027 76.096 23.7237 76.096 25.155C76.096 25.5857 75.8427 25.801 75.336 25.801H69.294C69.4334 27.7263 70.453 28.689 72.353 28.689C72.733 28.689 73.132 28.6447 73.55 28.556C73.968 28.4547 74.3734 28.2773 74.766 28.024C75.032 27.872 75.26 27.8213 75.45 27.872C75.6527 27.91 75.7984 28.0177 75.887 28.195C75.9757 28.3597 75.9884 28.5497 75.925 28.765C75.8744 28.9677 75.7287 29.145 75.488 29.297C75.0574 29.5883 74.5507 29.81 73.968 29.962C73.398 30.1013 72.8534 30.171 72.334 30.171ZM72.049 21.906C71.251 21.906 70.6177 22.153 70.149 22.647C69.6804 23.141 69.3954 23.7997 69.294 24.623H74.481C74.443 23.7617 74.215 23.0967 73.797 22.628C73.379 22.1467 72.7964 21.906 72.049 21.906ZM79.1381 30.133C78.5048 30.133 78.1881 29.81 78.1881 29.164V21.564C78.1881 20.918 78.4984 20.595 79.1191 20.595C79.7398 20.595 80.0501 20.918 80.0501 21.564V22.267C80.3668 21.7097 80.7974 21.2853 81.3421 20.994C81.8994 20.7027 82.5201 20.557 83.2041 20.557C85.3954 20.557 86.4911 21.7983 86.4911 24.281V29.164C86.4911 29.81 86.1744 30.133 85.5411 30.133C84.8951 30.133 84.5721 29.81 84.5721 29.164V24.395C84.5721 23.597 84.4138 23.0143 84.0971 22.647C83.7931 22.2797 83.3118 22.096 82.6531 22.096C81.8804 22.096 81.2598 22.343 80.7911 22.837C80.3351 23.3183 80.1071 23.958 80.1071 24.756V29.164C80.1071 29.81 79.7841 30.133 79.1381 30.133ZM93.4864 30.171C91.9664 30.171 90.7694 29.7467 89.8954 28.898C89.0214 28.0367 88.5844 26.865 88.5844 25.383C88.5844 24.433 88.7744 23.597 89.1544 22.875C89.547 22.1403 90.0854 21.5703 90.7694 21.165C91.4534 20.7597 92.2387 20.557 93.1254 20.557C94.4047 20.557 95.4117 20.9687 96.1464 21.792C96.881 22.6027 97.2484 23.7237 97.2484 25.155C97.2484 25.5857 96.995 25.801 96.4884 25.801H90.4464C90.5857 27.7263 91.6054 28.689 93.5054 28.689C93.8854 28.689 94.2844 28.6447 94.7024 28.556C95.1204 28.4547 95.5257 28.2773 95.9184 28.024C96.1844 27.872 96.4124 27.8213 96.6024 27.872C96.805 27.91 96.9507 28.0177 97.0394 28.195C97.128 28.3597 97.1407 28.5497 97.0774 28.765C97.0267 28.9677 96.881 29.145 96.6404 29.297C96.2097 29.5883 95.703 29.81 95.1204 29.962C94.5504 30.1013 94.0057 30.171 93.4864 30.171ZM93.2014 21.906C92.4034 21.906 91.77 22.153 91.3014 22.647C90.8327 23.141 90.5477 23.7997 90.4464 24.623H95.6334C95.5954 23.7617 95.3674 23.0967 94.9494 22.628C94.5314 22.1467 93.9487 21.906 93.2014 21.906ZM100.309 30.133C99.6634 30.133 99.3404 29.81 99.3404 29.164V21.564C99.3404 20.918 99.6508 20.595 100.271 20.595C100.892 20.595 101.202 20.918 101.202 21.564V22.381C101.456 21.811 101.836 21.374 102.342 21.07C102.862 20.766 103.489 20.5887 104.223 20.538C104.692 20.5 104.945 20.7533 104.983 21.298C105.034 21.8553 104.762 22.1593 104.166 22.21L103.805 22.248C102.121 22.4127 101.278 23.2803 101.278 24.851V29.164C101.278 29.81 100.955 30.133 100.309 30.133ZM109.3 30.171C108.654 30.171 108.077 30.0443 107.571 29.791C107.064 29.5377 106.659 29.1957 106.355 28.765C106.063 28.3343 105.918 27.8467 105.918 27.302C105.918 26.618 106.089 26.0797 106.431 25.687C106.785 25.2943 107.362 25.0093 108.16 24.832C108.97 24.6547 110.06 24.566 111.428 24.566H112.074V24.072C112.074 23.35 111.922 22.8307 111.618 22.514C111.314 22.1973 110.813 22.039 110.117 22.039C109.711 22.039 109.287 22.0897 108.844 22.191C108.413 22.2923 107.963 22.4633 107.495 22.704C107.229 22.8307 107.007 22.8497 106.83 22.761C106.665 22.6723 106.551 22.533 106.488 22.343C106.424 22.153 106.431 21.9567 106.507 21.754C106.583 21.5513 106.741 21.3993 106.982 21.298C107.539 21.0447 108.09 20.861 108.635 20.747C109.179 20.6203 109.692 20.557 110.174 20.557C111.44 20.557 112.378 20.861 112.986 21.469C113.594 22.0643 113.898 23.0017 113.898 24.281V29.164C113.898 29.81 113.6 30.133 113.005 30.133C112.397 30.133 112.093 29.81 112.093 29.164V28.461C111.865 28.993 111.51 29.411 111.029 29.715C110.547 30.019 109.971 30.171 109.3 30.171ZM109.68 28.803C110.364 28.803 110.934 28.5623 111.39 28.081C111.846 27.5997 112.074 26.9917 112.074 26.257V25.744H111.447C110.522 25.744 109.794 25.7883 109.262 25.877C108.742 25.9657 108.369 26.1177 108.141 26.333C107.925 26.5357 107.818 26.8207 107.818 27.188C107.818 27.6693 107.982 28.062 108.312 28.366C108.641 28.6573 109.097 28.803 109.68 28.803ZM117.51 30.133C116.864 30.133 116.541 29.81 116.541 29.164V21.564C116.541 20.918 116.851 20.595 117.472 20.595C118.092 20.595 118.403 20.918 118.403 21.564V22.381C118.656 21.811 119.036 21.374 119.543 21.07C120.062 20.766 120.689 20.5887 121.424 20.538C121.892 20.5 122.146 20.7533 122.184 21.298C122.234 21.8553 121.962 22.1593 121.367 22.21L121.006 22.248C119.321 22.4127 118.479 23.2803 118.479 24.851V29.164C118.479 29.81 118.156 30.133 117.51 30.133Z" fill="white"/>
</svg>
