<svg width="134" height="48" viewBox="0 0 134 48" fill="none" xmlns="http://www.w3.org/2000/svg">
<rect x="1.32622" y="1.32622" width="131.348" height="45.0915" rx="22.5457" fill="white" stroke="#7AAFB9" stroke-width="2.65244"/>
<path d="M55.1355 30.12C54.7755 30.12 54.5088 29.9267 54.3355 29.54L48.7155 16.56C48.6221 16.32 48.6355 16.1333 48.7555 16C48.8755 15.8533 49.0355 15.78 49.2355 15.78C49.4221 15.78 49.5621 15.82 49.6555 15.9C49.7488 15.98 49.8355 16.1 49.9155 16.26L55.1555 28.46L60.3955 16.26C60.5421 15.94 60.7688 15.78 61.0755 15.78C61.2888 15.78 61.4421 15.8533 61.5355 16C61.6288 16.1467 61.6288 16.3333 61.5355 16.56L55.9155 29.54C55.8355 29.74 55.7355 29.8867 55.6155 29.98C55.4955 30.0733 55.3355 30.12 55.1355 30.12ZM66.2373 30.16C65.3307 30.16 64.544 29.96 63.8773 29.56C63.2107 29.1467 62.6907 28.5667 62.3173 27.82C61.9573 27.06 61.7773 26.1667 61.7773 25.14C61.7773 24.1267 61.9573 23.2467 62.3173 22.5C62.6907 21.74 63.2107 21.1533 63.8773 20.74C64.544 20.3267 65.3307 20.12 66.2373 20.12C67.1573 20.12 67.9507 20.3267 68.6173 20.74C69.284 21.1533 69.7973 21.74 70.1573 22.5C70.5307 23.2467 70.7173 24.1267 70.7173 25.14C70.7173 26.1667 70.5307 27.06 70.1573 27.82C69.7973 28.5667 69.284 29.1467 68.6173 29.56C67.9507 29.96 67.1573 30.16 66.2373 30.16ZM66.2373 29.14C67.224 29.14 68.0107 28.7933 68.5973 28.1C69.184 27.3933 69.4773 26.4067 69.4773 25.14C69.4773 23.8733 69.184 22.8933 68.5973 22.2C68.0107 21.5067 67.224 21.16 66.2373 21.16C65.2507 21.16 64.464 21.5067 63.8773 22.2C63.304 22.8933 63.0173 23.8733 63.0173 25.14C63.0173 26.4067 63.304 27.3933 63.8773 28.1C64.464 28.7933 65.2507 29.14 66.2373 29.14ZM76.1148 30.16C75.2215 30.16 74.5282 29.8867 74.0348 29.34C73.5548 28.78 73.3148 27.98 73.3148 26.94V16.4C73.3148 15.9867 73.5215 15.78 73.9348 15.78C74.3348 15.78 74.5348 15.9867 74.5348 16.4V26.8C74.5348 28.3333 75.1348 29.1 76.3348 29.1C76.4548 29.1 76.5615 29.0933 76.6548 29.08C76.7615 29.0667 76.8615 29.06 76.9548 29.06C77.0748 29.0467 77.1615 29.0733 77.2148 29.14C77.2815 29.1933 77.3148 29.3133 77.3148 29.5C77.3148 29.8467 77.1148 30.0533 76.7148 30.12C76.6215 30.1467 76.5215 30.16 76.4148 30.16C76.3082 30.16 76.2082 30.16 76.1148 30.16ZM82.3031 30.12C81.9165 30.12 81.6298 29.9067 81.4431 29.48L77.8431 21.08C77.7365 20.84 77.7298 20.6267 77.8231 20.44C77.9165 20.2533 78.1031 20.16 78.3831 20.16C78.6631 20.16 78.8698 20.3267 79.0031 20.66L82.3031 28.66L85.6431 20.66C85.7098 20.4867 85.7898 20.36 85.8831 20.28C85.9765 20.2 86.1098 20.16 86.2831 20.16C86.5365 20.16 86.6965 20.2533 86.7631 20.44C86.8431 20.6267 86.8365 20.8333 86.7431 21.06L83.1431 29.48C82.9698 29.9067 82.6898 30.12 82.3031 30.12ZM93.0817 30.16C91.5884 30.16 90.4084 29.72 89.5417 28.84C88.6884 27.9467 88.2617 26.7267 88.2617 25.18C88.2617 24.18 88.4551 23.3 88.8417 22.54C89.2284 21.78 89.7617 21.1867 90.4417 20.76C91.1351 20.3333 91.9284 20.12 92.8217 20.12C94.1151 20.12 95.1217 20.54 95.8417 21.38C96.5617 22.22 96.9217 23.3733 96.9217 24.84C96.9217 25.2133 96.7351 25.4 96.3617 25.4H89.4617C89.5017 26.6 89.8284 27.5267 90.4417 28.18C91.0684 28.82 91.9351 29.14 93.0417 29.14C93.5351 29.14 94.0084 29.08 94.4617 28.96C94.9284 28.8267 95.3817 28.5933 95.8217 28.26C96.0617 28.1 96.2684 28.0667 96.4417 28.16C96.6151 28.24 96.7084 28.38 96.7217 28.58C96.7484 28.7667 96.6484 28.94 96.4217 29.1C95.9951 29.4467 95.4751 29.7133 94.8617 29.9C94.2617 30.0733 93.6684 30.16 93.0817 30.16ZM92.8417 21.1C91.8284 21.1 91.0351 21.42 90.4617 22.06C89.9017 22.6867 89.5751 23.5 89.4817 24.5H95.8217C95.7951 23.4333 95.5284 22.6 95.0217 22C94.5151 21.4 93.7884 21.1 92.8417 21.1ZM100.029 30.12C99.6153 30.12 99.4086 29.9133 99.4086 29.5V20.8C99.4086 20.3733 99.6153 20.16 100.029 20.16C100.415 20.16 100.609 20.3733 100.609 20.8V22.06C100.902 21.4333 101.335 20.9533 101.909 20.62C102.495 20.2867 103.169 20.1133 103.929 20.1C104.089 20.0867 104.222 20.12 104.329 20.2C104.435 20.28 104.489 20.4067 104.489 20.58C104.502 20.9533 104.309 21.16 103.909 21.2L103.629 21.22C102.682 21.3 101.949 21.6133 101.429 22.16C100.909 22.6933 100.649 23.4133 100.649 24.32V29.5C100.649 29.9133 100.442 30.12 100.029 30.12Z" fill="black"/>
<path d="M39.9935 31.5555L31.2314 24L39.9935 16.4444" stroke="#7AAFB9" stroke-width="2.80322" stroke-linecap="round" stroke-linejoin="round"/>
</svg>
